<ttFont>
          <CharString index="0">
            896 557 rmoveto
            272 -102 205 -284 -303 -126 -280 -252 -318 140 -214 317 -51 callsubr
            vhcurveto
            -89 callgsubr
            -355 457 rmoveto
            113 36 -121 -81 callsubr
            185 133 hhcurveto
            return
          </CharString>
          <CharString index="1">
            483 -70 callgsubr
            56 -148 -204 37 hvcurveto
            42 hlineto
            -10 407 rlineto
            -985 -45 hlineto
            -101 callsubr
            1026 vlineto
            11 408 rlineto
            -43 hlineto
            -228 -42 -51 -125 -91 callgsubr
            hlineto
            return
          </CharString>
          <CharString index="2">
            hstem
            81 256 326 233 vstem
            -107 callsubr
            return
          </CharString>
          <CharString index="3">
            -20 hstemhm
            158 246 332 245 hintmask 01111000
            -89 callsubr
            hintmask 10111000
            -99 callgsubr
            return
          </CharString>
          <CharString index="4">
            -268 -22 rmoveto
            -441 231 -303 397 424 197 391 385 430 -250 291 -377 -385 -237 -344 -409 vhcurveto
            return
          </CharString>
          <CharString index="5">
            -77 45 -56 71 71 46 56 77 75 -46 57 -71 -71 -45 -57 -75 vhcurveto
            return
          </CharString>
          <CharString index="6">
            154 -10 rlineto
            -93 callsubr
            return
          </CharString>
          <CharString index="7">
            rmoveto
            -98 callgsubr
            360 hmoveto
            -98 callgsubr
            endchar
          </CharString>
          <CharString index="8">
            rmoveto
            -145 -54 206 287 276 54 205 145 156 45 -184 -309 -277 -51 -204 -150 hvcurveto
            return
          </CharString>
          <CharString index="9">
            -94 callsubr
            rlineto
            -41 123 return
          </CharString>
          <CharString index="10">
            vlineto
            -103 -96 callsubr
            return
          </CharString>
          <CharString index="11">
            -47 callgsubr
            451 -79 callsubr
            return
          </CharString>
          <CharString index="12">
            rmoveto
            19 20 12 30 30 vvcurveto
            52 -40 41 -50 -43 -35 -31 -38 -12 vhcurveto
            -111 -318 37 -26 rlineto
            endchar
          </CharString>
          <CharString index="13">
            -64 callsubr
            -209 -22 return
          </CharString>
          <CharString index="14">
            -35 callsubr
            vlineto
            -80 callsubr
            return
          </CharString>
          <CharString index="15">
            64 -35 61 -82 -72 -53 -61 -78 -84 66 -64 102 92 98 38 285 97 vhcurveto
            332 1124 104 -20 callgsubr
            -272 -41 vlineto
            110 -11 rlineto
            -176 -692 rmoveto
            -4 hlineto
            -276 692 -43 callsubr
            442 -1024 rlineto
            return
          </CharString>
          <CharString index="16">
            -29 callgsubr
            hintmask 11011011
            -106 callsubr
            hintmask 11100111
            -74 callgsubr
            return
          </CharString>
          <CharString index="17">
            rmoveto
            55 -46 234 164 rlineto
            4 hlineto
            241 -161 62 47 -295 275 -21 callsubr
            endchar
          </CharString>
          <CharString index="18">
            770 hmoveto
            314 -28 callgsubr
            944 vlineto
            -80 callgsubr
            -555 vlineto
            return
          </CharString>
          <CharString index="19">
            60 -47 27 -39 -26 -34 -21 -14 -18 vhcurveto
            -242 -191 15 -38 rlineto
            endchar
          </CharString>
          <CharString index="20">
            -81 57 -54 81 84 54 54 81 84 -54 56 -84 -81 -57 -56 -84 vhcurveto
            return
          </CharString>
          <CharString index="21">
            -270 -191 -233 -305 -285 138 -241 321 return
          </CharString>
          <CharString index="22">
            hstem
            96 268 713 -97 callgsubr
            return
          </CharString>
          <CharString index="23">
            14 -18 -31 19 -25 hhcurveto
            -40 -51 -25 -60 -56 45 -31 46 -10 hvcurveto
            endchar
          </CharString>
          <CharString index="24">
            -75 callgsubr
            -16 callgsubr
            vhcurveto
            -44 callsubr
            return
          </CharString>
          <CharString index="25">
            -49 callgsubr
            -88 callsubr
          </CharString>
          <CharString index="26">
            -180 -31 -1 -33 -2 -34 hvcurveto
            -323 -13 rlineto
            227 7 37 return
          </CharString>
          <CharString index="27">
            -72 callsubr
            -45 return
          </CharString>
          <CharString index="28">
            41 vlineto
            -54 callgsubr
            return
          </CharString>
          <CharString index="29">
            98 -12 callsubr
            421 -728 rlineto
            -589 -8 callsubr
            -45 563 -78 callgsubr
            648 vlineto
            312 669 -76 callsubr
            return
          </CharString>
          <CharString index="30">
            -607 -40 callsubr
            hstemhm
            92 277 hintmask 11010000
            139 -289 -61 callgsubr
            hintmask 10110000
            -48 callsubr
          </CharString>
          <CharString index="31">
            124 -38 callgsubr
            -333 -45 vlineto
            141 -10 -282 -607 rlineto
            -5 hlineto
            -337 607 7 callsubr
            -587 -45 vlineto
            return
          </CharString>
          <CharString index="32">
            rmoveto
            37 26 -111 318 rlineto
            38 -12 -35 31 -43 hhcurveto
            return
          </CharString>
          <CharString index="33">
            -113 -163 -68 45 -66 82 73 53 return
          </CharString>
          <CharString index="34">
            rmoveto
            -47 -68 -13 -22 -41 hvcurveto
            61 187 rlineto
            -69 hlineto
            -59 -234 34 -28 rlineto
            19 27 35 11 31 hhcurveto
            44 21 -29 -44 -79 -81 -120 -152 -22 hvcurveto
            8 -50 rlineto
            140 20 261 103 166 vvcurveto
            84 -61 51 -84 vhcurveto
            endchar
          </CharString>
          <CharString index="35">
            -154 -10 rlineto
            return
          </CharString>
          <CharString index="36">
            -121 -16 -185 -148 -157 -5 203 150 vhcurveto
            -202 -33 rmoveto
            -197 135 -178 237 203 158 184 209 178 -116 192 -244 -240 -133 -199 -189 vhcurveto
            return
          </CharString>
          <CharString index="37">
            55 655 -60 callgsubr
            return
          </CharString>
          <CharString index="38">
            rmoveto
            hintmask 10100000
            -95 callgsubr
            hintmask 01100000
            -96 callgsubr
          </CharString>
          <CharString index="39">
            -54 callsubr
            153 -10 rlineto
            return
          </CharString>
          <CharString index="40">
            rmoveto
            -18 29 -91 -37 -199 -7 callgsubr
            -616 vlineto
            -103 -47 callgsubr
            391 -79 callsubr
            return
          </CharString>
          <CharString index="41">
            rmoveto
            -120 86 -58 160 159 91 58 120 119 -91 63 -159 -150 -96 -63 -119 vhcurveto
            139 hmoveto
            82 34 44 73 75 35 -44 -82 -81 -35 -41 -75 -73 -34 41 81 vhcurveto
            endchar
          </CharString>
          <CharString index="42">
            -98 callsubr
            -873 -97 callsubr
            return
          </CharString>
          <CharString index="43">
            -47 callsubr
            -37 return
          </CharString>
          <CharString index="44">
            hstemhm
            -55 callsubr
            hintmask 11010000
            -90 callgsubr
            return
          </CharString>
          <CharString index="45">
            -67 callsubr
            -77 -761 rmoveto
            -66 callgsubr
            return
          </CharString>
          <CharString index="46">
            rmoveto
            -56 callsubr
            return
          </CharString>
          <CharString index="47">
            4 6 -77 hvcurveto
            642 vlineto
            3 32 return
          </CharString>
          <CharString index="48">
            -123 -190 hvcurveto
            -138 vlineto
            return
          </CharString>
          <CharString index="49">
            -56 callgsubr
            247 245 return
          </CharString>
          <CharString index="50">
            271 182 237 295 return
          </CharString>
          <CharString index="51">
            -18 -94 callsubr
            return
          </CharString>
          <CharString index="52">
            227 256 return
          </CharString>
          <CharString index="53">
            0 0 vhcurveto
            -45 vlineto
            return
          </CharString>
          <CharString index="54">
            0 50 1327 50 return
          </CharString>
          <CharString index="55">
            592 110 hstem
            -41 callsubr
            return
          </CharString>
          <CharString index="56">
            131 140 55 162 96 return
          </CharString>
          <CharString index="57">
            -474 -21 1957 -20 hstem
            return
          </CharString>
          <CharString index="58">
            142 -51 51 92 -20 hstemhm
            return
          </CharString>
          <CharString index="59">
            20 17 2 16 25 hvcurveto
            4 hlineto
            -57 -31 -103 -129 -61 vhcurveto
            endchar
          </CharString>
          <CharString index="60">
            29 -141 return
          </CharString>
          <CharString index="61">
            2 -15 -16 1 -15 hhcurveto
            -54 -50 -15 -59 -60 52 -15 53 15 15 1 2 15 hvcurveto
            100 13 96 31 100 1 -21 -153 -31 return
          </CharString>
          <CharString index="62">
            1419 rmoveto
            -80 callgsubr
            return
          </CharString>
          <CharString index="63">
            4 hlineto
            -57 -29 -103 -118 -61 vhcurveto
            return
          </CharString>
          <CharString index="64">
            108 -20 callgsubr
            -473 -41 vlineto
            99 -11 return
          </CharString>
          <CharString index="65">
            48 -34 38 -53 -57 -31 -41 -64 -87 83 -71 147 174 105 67 140 141 -119 48 -119 9 vhcurveto
            return
          </CharString>
          <CharString index="66">
            117 702 rmoveto
            -110 return
          </CharString>
          <CharString index="67">
            -268 -23 callgsubr
            -236 -21 return
          </CharString>
          <CharString index="68">
            100 -285 vlineto
            283 375 rmoveto
            -232 -325 rlineto
            -2 vlineto
            234 1 rlineto
            326 vlineto
            endchar
          </CharString>
          <CharString index="69">
            118 40 -68 -127 -103 -56 -54 -90 -66 -36 22 30 -19 hvcurveto
            3 vlineto
            67 -8 36 38 56 vvcurveto
            return
          </CharString>
          <CharString index="70">
            154 10 rlineto
            return
          </CharString>
          <CharString index="71">
            144 113 vvcurveto
            return
          </CharString>
          <CharString index="72">
            -1317 return
          </CharString>
          <CharString index="73">
            5 -30 45 974 45 return
          </CharString>
          <CharString index="74">
            1427 rmoveto
            return
          </CharString>
          <CharString index="75">
            -10 rlineto
            -45 return
          </CharString>
          <CharString index="76">
            rmoveto
            -74 58 -59 74 74 59 59 74 73 -59 59 -74 -74 -58 -59 -73 vhcurveto
            endchar
          </CharString>
          <CharString index="77">
            rmoveto
            -110 912 110 vlineto
            return
          </CharString>
          <CharString index="78">
            vlineto
            -22 callsubr
            return
          </CharString>
          <CharString index="79">
            0 50 364 64 return
          </CharString>
          <CharString index="80">
            -100 -13 -97 -31 -101 -1 rrcurveto
            20 280 50 56 106 vvcurveto
            61 -22 69 -68 vhcurveto
            return
          </CharString>
          <CharString index="81">
            245 115 245 return
          </CharString>
          <CharString index="82">
            106 70 -92 -336 -188 -8 -315 -230 -39 -47 18 33 -37 return
          </CharString>
          <CharString index="83">
            96 268 713 268 return
          </CharString>
          <CharString index="84">
            80 256 400 return
          </CharString>
          <CharString index="85">
            -102 -47 callgsubr
            return
          </CharString>
          <CharString index="86">
            rlineto
            -4 hlineto
            return
          </CharString>
          <CharString index="87">
            -41 52 73 -10 39 hhcurveto
            309 144 247 295 return
          </CharString>
          <CharString index="88">
            -55 39 -60 74 73 43 56 63 94 -78 74 -147 -91 return
          </CharString>
          <CharString index="89">
            -356 -53 callsubr
            return
          </CharString>
          <CharString index="90">
            hintmask 110000101001011101000000
            return
          </CharString>
          <CharString index="91">
            76 -30 93 -42 -21 return
          </CharString>
          <CharString index="92">
            96 78 26 21 -12 -13 4 vhcurveto
            -4 vlineto
            -29 -18 -14 return
          </CharString>
          <CharString index="93">
            136 -38 callgsubr
            -555 -45 vlineto
            151 -10 return
          </CharString>
          <CharString index="94">
            -53 callsubr
            hstem
            return
          </CharString>
          <CharString index="95">
            1372 rmoveto
            return
          </CharString>
          <CharString index="96">
            1317 return
          </CharString>
          <CharString index="97">
            918 275 254 -20 hstem
            84 254 return
          </CharString>
          <CharString index="98">
            328 287 -248 118 -284 hvcurveto
            return
          </CharString>
          <CharString index="99">
            vlineto
            -3 callsubr
            return
          </CharString>
          <CharString index="100">
            hstem
            -55 callsubr
            return
          </CharString>
          <CharString index="101">
            1246 265 return
          </CharString>
          <CharString index="102">
            -22 153 rrcurveto
            101 96 -31 -13 100 hvcurveto
            return
          </CharString>
          <CharString index="103">
            -519 -495 61 1835 61 hstem
            return
          </CharString>
          <CharString index="104">
            -153 -10 rlineto
            return
          </CharString>
          <CharString index="105">
            rlineto
            -123 hlineto
            return
          </CharString>
          <CharString index="106">
            -45 370 45 vlineto
            -153 10 rlineto
            return
          </CharString>
          <CharString index="107">
            230 -49 callsubr
            return
          </CharString>
          <CharString index="108">
            419 176 269 240 vhcurveto
            return
          </CharString>
          <CharString index="109">
            rmoveto
            717 -122 -717 vlineto
            return
          </CharString>
          <CharString index="110">
            -41 -391 41 vlineto
            103 10 rlineto
            return
          </CharString>
          <CharString index="111">
            -82 59 -61 88 96 54 71 80 return
          </CharString>
          <CharString index="112">
            48 157 287 -45 45 hstemhm
            return
          </CharString>
          <CharString index="113">
            hvcurveto
            hintmask 100100011001011101000000
            return
          </CharString>
          <CharString index="114">
            155 -38 callgsubr
            return
          </CharString>
          <CharString index="115">
            -94 -92 -82 -56 return
          </CharString>
          <CharString index="116">
            vhcurveto
            4 vlineto
            return
          </CharString>
        <CharString name=".notdef">
          -58 8 callgsubr
          hstem
          80 80 688 80 vstem
          80 hmoveto
          848 1004 -848 hlineto
          80 -20 rmoveto
          688 -964 -688 hlineto
          endchar
        </CharString>
        <CharString name=".null">
          -1066 endchar
        </CharString>
        <CharString name="A">
          -28 callsubr
          990 -101 callgsubr
          endchar
        </CharString>
        <CharString name="AE">
          788 0 55 359 54 242 -60 callgsubr
          hstemhm
          738 391 -256 256 304 55 hintmask 1110111010000000
          1129 -70 callgsubr
          58 -149 -203 22 hvcurveto
          55 407 -1150 -45 hlineto
          127 47 -36 -69 -60 -39 -86 -63 -111 hvcurveto
          -549 -965 -121 -32 callsubr
          319 45 vlineto
          -135 10 204 359 rlineto
          hintmask 1111011010000000
          519 -359 hlineto
          -80 callsubr
          1026 408 -32 vlineto
          -203 -23 -70 -150 -91 callgsubr
          537 -55 hlineto
          -69 callgsubr
          -750 -300 rmoveto
          hintmask 1110110110000000
          494 860 rlineto
          -860 vlineto
          endchar
        </CharString>
        <CharString name="Aacute">
          -28 callsubr
          1321 -101 callgsubr
          507 1141 -82 callsubr
        </CharString>
        <CharString name="Acircumflex">
          -28 callsubr
          1376 -101 callgsubr
          14 1101 -90 callsubr
        </CharString>
        <CharString name="Adieresis">
          -28 callsubr
          1094 269 hstem
          305 -26 callsubr
          vstem
          854 55 rmoveto
          -135 -32 callsubr
          535 45 vlineto
          -132 10 -489 1413 rlineto
          -45 hlineto
          -473 -1413 -121 -32 callsubr
          313 45 vlineto
          -135 10 116 359 rlineto
          448 hlineto
          -226 682 rmoveto
          4 hlineto
          200 -614 -408 -8 rlineto
          -1 1233 -100 callsubr
        </CharString>
        <CharString name="Agrave">
          -28 callsubr
          1326 -101 callgsubr
          372 1068 -81 callgsubr
        </CharString>
        <CharString name="Aring">
          -28 callsubr
          1036 56 248 56 hstem
          362 139 217 140 vstem
          854 55 rmoveto
          -135 -32 callsubr
          535 45 vlineto
          -132 10 -489 1413 rlineto
          -45 hlineto
          -473 -1413 -121 -32 callsubr
          313 45 vlineto
          -135 10 116 359 rlineto
          448 hlineto
          -226 682 rmoveto
          4 hlineto
          200 -614 -408 -8 rlineto
          56 1218 -66 callsubr
        </CharString>
        <CharString name="Atilde">
          -28 callsubr
          1121 -49 callsubr
          hintmask 11011000
          854 55 rmoveto
          -135 -32 callsubr
          535 45 vlineto
          -132 10 -489 1413 rlineto
          -45 hlineto
          -473 -1413 -121 -32 callsubr
          313 45 vlineto
          -135 10 116 359 rlineto
          448 hlineto
          -226 682 rmoveto
          4 hlineto
          200 -614 -408 -8 rlineto
          181 1216 rmoveto
          hintmask 11101000
          -95 callgsubr
          hintmask 11011000
          -96 callgsubr
        </CharString>
        <CharString name="B">
          216 0 55 -11 callsubr
          55 hstemhm
          -55 callsubr
          380 260 -196 196 -196 266 hintmask 11100100
          227 -12 callsubr
          -93 callsubr
          578 vlineto
          266 276 104 295 261 -204 122 -266 hvcurveto
          4 vlineto
          hintmask 11101000
          157 21 243 88 211 vvcurveto
          264 -248 57 -267 vhcurveto
          -535 -45 hlineto
          410 -644 rmoveto
          5 32 23 2 37 hhcurveto
          217 135 -120 -228 -209 -127 -133 -213 -22 -39 2 8 -43 hvcurveto
          1297 vmoveto
          8 43 39 2 22 hhcurveto
          hintmask 11110000
          193 83 -108 -164 -198 -97 -102 -206 -28 -21 2 4 -28 hvcurveto
          endchar
        </CharString>
        <CharString name="C">
          187 -35 -9 callgsubr
          511 280 hintmask 10111000
          -40 callgsubr
          hintmask 11011000
          -76 callgsubr
          hintmask 10111000
          1 callsubr
          endchar
        </CharString>
        <CharString name="Ccedilla">
          187 -539 -21 344 80 101 -9 callgsubr
          299 176 36 280 hintmask 11101111
          -40 callgsubr
          hintmask 11110111
          -76 callgsubr
          hintmask 11101111
          1 callsubr
          -86 -1541 -73 callsubr
        </CharString>
        <CharString name="D">
          352 0 55 -11 callsubr
          55 -7 callsubr
          567 266 vstem
          581 5 callgsubr
          1297 -36 callgsubr
          29 -55 rmoveto
          501 205 311 396 432 -186 288 -553 hvcurveto
          -504 -45 hlineto
          -101 callsubr
          vlineto
          endchar
        </CharString>
        <CharString name="E">
          -71 callgsubr
          -29 callgsubr
          hintmask 11011110
          -106 callsubr
          hintmask 11101110
          -74 callgsubr
          endchar
        </CharString>
        <CharString name="Eacute">
          -71 callgsubr
          -55 427 -91 callsubr
          391 847 -82 callsubr
        </CharString>
        <CharString name="Ecircumflex">
          -71 callgsubr
          427 -20 -29 callgsubr
          hintmask 11011111
          -106 callsubr
          hintmask 11101111
          -74 callgsubr
          -122 807 -90 callsubr
        </CharString>
        <CharString name="Edieresis">
          -71 callgsubr
          145 269 hstemhm
          -55 callsubr
          -157 -26 callsubr
          -144 55 hintmask 1101111001000000
          -106 callsubr
          hintmask 1110111001000000
          -74 callgsubr
          hintmask 1101110110000000
          -157 939 -100 callsubr
        </CharString>
        <CharString name="Egrave">
          -71 callgsubr
          -55 432 -91 callsubr
          296 774 -81 callgsubr
        </CharString>
        <CharString name="Eth">
          355 0 55 637 70 610 55 hstem
          230 256 567 266 vstem
          613 hmoveto
          501 205 311 396 432 -186 288 -553 hvcurveto
          -504 -45 hlineto
          154 -10 rlineto
          -617 -179 -63 179 -637 vlineto
          -80 callsubr
          vlineto
          508 5 callgsubr
          627 207 70 -207 600 -36 callgsubr
          endchar
        </CharString>
        <CharString name="Euro">
          265 -35 73 510 110 170 110 460 64 hstem
          1194 1140 rmoveto
          50 19 rlineto
          203 -73 -164 100 -198 hhcurveto
          -358 -178 -246 -278 -68 hvcurveto
          -139 hlineto
          -34 -110 rlineto
          153 hlineto
          -6 -47 -3 -47 -46 vvcurveto
          -30 -110 vlineto
          -34 -110 rlineto
          151 hlineto
          -337 36 178 -246 413 hhcurveto
          242 153 131 221 90 hvcurveto
          -37 callgsubr
          -234 -116 248 262 -34 hvcurveto
          417 hlineto
          34 110 rlineto
          -461 hlineto
          -1 20 0 19 20 vvcurveto
          38 1 37 3 36 vhcurveto
          502 hlineto
          34 110 rlineto
          -521 hlineto
          269 48 128 191 191 hhcurveto
          161 122 -68 -190 83 hvcurveto
          endchar
        </CharString>
        <CharString name="F">
          14 0 50 641 54 275 -20 372 55 -7 callsubr
          274 55 vstem
          483 1362 rmoveto
          9 52 59 1 62 hhcurveto
          237 61 -145 -207 18 hvcurveto
          56 hlineto
          -10 407 rlineto
          -945 -45 hlineto
          -101 callsubr
          604 45 vlineto
          -194 10 rlineto
          635 vlineto
          1 32 35 0 12 hhcurveto
          136 59 -56 -187 hvcurveto
          55 537 -55 hlineto
          -215 -73 -25 -172 vhcurveto
          -9 -10 1 -10 hhcurveto
          endchar
        </CharString>
        <CharString name="G">
          341 -35 58 999 440 -60 60 hstemhm
          98 266 563 297 -235 235 hintmask 10110100
          1218 598 rmoveto
          147 11 rlineto
          45 vlineto
          0 -524 -54 callsubr
          148 -11 rlineto
          -545 vlineto
          -17 -56 -56 -13 -74 hhcurveto
          -372 -67 395 299 403 166 282 287 151 94 -67 -21 18 hvcurveto
          -4 vlineto
          hintmask 11011000
          -86 -67 -51 -94 -82 59 -61 88 97 53 71 80 152 -190 137 -277 -463 -196 -438 -340 -342 106 -377 544 170 185 35 68 115 hvcurveto
          endchar
        </CharString>
        <CharString name="H">
          438 0 50 652 64 611 50 -7 callsubr
          538 256 vstem
          1431 -33 callsubr
          -564 -45 hlineto
          154 -10 rlineto
          -602 vlineto
          -538 -8 rlineto
          610 -35 callgsubr
          45 -564 -45 vlineto
          -101 callsubr
          564 -78 callgsubr
          647 538 -647 vlineto
          -80 callsubr
          564 -78 callgsubr
          -11 callsubr
          -35 callgsubr
          endchar
        </CharString>
        <CharString name="I">
          -18 callsubr
          -7 callsubr
          vstem
          -90 callgsubr
          endchar
        </CharString>
        <CharString name="Iacute">
          -18 callsubr
          -50 422 -63 callsubr
          -94 -46 callgsubr
        </CharString>
        <CharString name="Icircumflex">
          -18 callsubr
          427 -20 -7 callsubr
          vstem
          -90 callgsubr
          -577 193 -90 callsubr
        </CharString>
        <CharString name="Idieresis">
          -18 callsubr
          145 269 hstem
          45 -26 callsubr
          vstem
          637 1382 rmoveto
          -72 callsubr
          -35 callsubr
          vlineto
          154 -32 callsubr
          -564 45 -35 callgsubr
          -11 callsubr
          -55 callgsubr
          rlineto
          45 564 vlineto
          -592 280 -100 callsubr
        </CharString>
        <CharString name="Igrave">
          -18 callsubr
          -50 427 -63 callsubr
          -189 160 -50 callgsubr
          hintmask 10110000
          -84 callsubr
        </CharString>
        <CharString name="J">
          -245 -307 55 1679 -20 hstem
          -59 284 123 256 vstem
          604 -12 callsubr
          154 -48 callgsubr
          -604 -54 callsubr
          194 -10 rlineto
          -1364 vlineto
          -254 -88 -6 -49 -10 -39 4 15 -10 vhcurveto
          -3 4 rlineto
          50 26 26 62 39 vvcurveto
          71 -47 66 -94 -86 -57 -70 -78 -129 120 -65 134 133 276 59 469 vhcurveto
          endchar
        </CharString>
        <CharString name="K">
          315 -13 callsubr
          227 256 vstem
          637 -33 callsubr
          -564 -45 hlineto
          -101 callsubr
          564 -78 callgsubr
          657 2 vlineto
          481 -657 -129 -32 callsubr
          571 45 vlineto
          -108 10 -635 826 465 491 117 -38 callgsubr
          -324 -45 vlineto
          129 -10 -567 -608 rlineto
          -2 608 hlineto
          -37 callsubr
          endchar
        </CharString>
        <CharString name="L">
          100 0 54 1323 50 -7 callsubr
          vstem
          73 -33 callsubr
          -45 vlineto
          -101 callsubr
          1047 408 -34 vlineto
          -282 -61 -31 -72 -288 hhcurveto
          -75 -74 6 5 -74 hvcurveto
          1307 -35 callgsubr
          45 vlineto
          endchar
        </CharString>
        <CharString name="M">
          729 0 50 -49 -21 1397 50 hstemhm
          227 50 1036 255 hintmask 10111000
          1722 -33 callsubr
          -410 hlineto
          -392 -1064 rlineto
          -2 hlineto
          -417 1064 rlineto
          -428 -45 hlineto
          -101 callsubr
          363 45 vlineto
          -151 10 -15 1270 rlineto
          2 hlineto
          hintmask 01111000
          528 -1345 rlineto
          37 hlineto
          475 1298 rlineto
          2 hlineto
          -2 -1223 -72 callsubr
          hintmask 10111000
          -45 564 -78 callgsubr
          -11 callsubr
          -35 callgsubr
          endchar
        </CharString>
        <CharString name="N">
          -13 callgsubr
          hstemhm
          227 62 847 61 hintmask 01111100
          282 1023 rmoveto
          2 hlineto
          858 -1043 rlineto
          61 hlineto
          -11 1392 -37 callsubr
          45 -370 -45 vlineto
          153 -10 14 -985 rlineto
          -2 hlineto
          -858 1040 rlineto
          -214 -45 hlineto
          153 -10 11 -35 callsubr
          -72 callsubr
          hintmask 10111100
          -1 callsubr
          endchar
        </CharString>
        <CharString name="Ntilde">
          -13 callgsubr
          172 -49 callsubr
          227 62 847 61 hintmask 0111101110000000
          282 1023 rmoveto
          2 hlineto
          858 -1043 rlineto
          61 hlineto
          -11 1392 -37 callsubr
          45 -370 -45 vlineto
          153 -10 14 -985 rlineto
          -2 hlineto
          -858 1040 rlineto
          -214 -45 hlineto
          153 -10 11 -35 callsubr
          -72 callsubr
          hintmask 1011011110000000
          -1 callsubr
          283 1635 rmoveto
          hintmask 1011101110000000
          -95 callgsubr
          hintmask 1011011110000000
          -96 callgsubr
        </CharString>
        <CharString name="O">
          -51 callgsubr
          -85 callsubr
          endchar
        </CharString>
        <CharString name="OE">
          947 -35 62 -27 -70 callsubr
          -29 64 hstemhm
          97 266 666 256 307 55 hintmask 1010110111000000
          1285 1362 rmoveto
          6 77 77 4 62 hhcurveto
          237 58 -149 -203 22 hvcurveto
          55 407 -844 hlineto
          hintmask 1010101111000000
          17 -93 -88 18 -108 hhcurveto
          -463 -180 -432 -341 -366 142 -358 523 hvcurveto
          hintmask 0111010111000000
          69 87 3 32 111 hvcurveto
          875 408 -32 hlineto
          -203 -23 -70 -150 -237 hhcurveto
          -74 -106 -60 callsubr
          63 -72 callgsubr
          537 -55 hlineto
          -187 -60 -52 -135 -27 -54 0 3 -31 vhcurveto
          hintmask 1010101111000000
          -475 -741 rmoveto
          -294 -153 280 409 391 153 291 288 100 81 -17 -23 44 hvcurveto
          -1294 vlineto
          -31 -79 -51 -6 -89 hhcurveto
          endchar
        </CharString>
        <CharString name="Oacute">
          -51 callgsubr
          -55 392 -85 callgsubr
          823 906 -49 callgsubr
          hintmask 10111000
          -88 callsubr
        </CharString>
        <CharString name="Ocircumflex">
          -51 callgsubr
          392 -20 -85 callsubr
          330 866 -90 callsubr
        </CharString>
        <CharString name="Odieresis">
          -51 callgsubr
          110 269 hstem
          96 268 47 -26 callsubr
          61 -97 callgsubr
          315 998 -100 callsubr
        </CharString>
        <CharString name="Ograve">
          -51 callgsubr
          -55 397 -85 callgsubr
          728 833 -50 callgsubr
          hintmask 10111000
          -84 callsubr
        </CharString>
        <CharString name="Oslash">
          376 -36 -21 22 -42 callgsubr
          -14 -20 hstemhm
          97 251 743 251 hintmask 11011100
          97 709 rmoveto
          -224 59 -188 110 -131 vhcurveto
          -169 -223 rlineto
          123 hlineto
          116 153 rlineto
          -84 100 130 -47 157 hhcurveto
          424 195 391 385 190 -49 163 -87 123 hvcurveto
          175 231 -2 callsubr
          -117 -154 rlineto
          hintmask 11101100
          107 -107 -145 61 -172 hhcurveto
          -385 -235 -344 -409 hvcurveto
          251 22 rmoveto
          508 175 168 200 139 108 -72 -171 62 vhcurveto
          -633 -836 rlineto
          -34 112 -17 137 154 vvcurveto
          743 2 rmoveto
          -454 -136 -259 -238 -122 -93 74 127 -62 vhcurveto
          625 823 rlineto
          17 -86 9 -103 -122 vvcurveto
          endchar
        </CharString>
        <CharString name="Otilde">
          -51 callgsubr
          137 142 -51 51 92 -20 -17 callgsubr
          hintmask 11011110
          -107 callgsubr
          497 981 -88 callgsubr
        </CharString>
        <CharString name="P">
          141 0 50 518 56 742 61 -7 callsubr
          399 266 vstem
          548 568 rmoveto
          316 284 126 -9 callsubr
          -543 -45 hlineto
          -101 callsubr
          564 -78 callgsubr
          515 vlineto
          -1 22 24 -1 19 hhcurveto
          -65 790 rmoveto
          6 43 -26 callgsubr
          -23 -25 1 2 -23 hvcurveto
          endchar
        </CharString>
        <CharString name="Q">
          375 -451 126 76 210 -150 116 38 -42 callgsubr
          -17 callgsubr
          -187 187 -11 59 hintmask 1011110010000000
          424 -213 rmoveto
          19 38 36 5 34 hhcurveto
          77 95 -79 -81 137 hvcurveto
          -99 167 48 -3 71 hhcurveto
          175 91 150 101 hvcurveto
          hintmask 1101110100000000
          85 -43 76 -85 -59 -48 -41 -66 -57 40 -46 66 31 23 15 21 12 vhcurveto
          3 1 rlineto
          hintmask 1011110010000000
          -5 1 -4 -5 vvcurveto
          -46 -28 -53 -72 -33 -39 12 27 -48 vhcurveto
          107 -193 -86 106 -179 hhcurveto
          -81 -87 -31 -69 -84 hvcurveto
          -40 904 -59 callgsubr
          vhcurveto
          hintmask 1101111000000000
          -94 callgsubr
          hvcurveto
          -103 callsubr
          endchar
        </CharString>
        <CharString name="R">
          223 0 50 621 55 645 56 -7 callsubr
          364 267 vstem
          483 1363 rmoveto
          6 43 31 2 22 hhcurveto
          148 120 -64 -236 -217 -75 -128 -248 -18 -12 0 1 -11 hvcurveto
          67 -56 rmoveto
          107 65 -161 -178 72 hvcurveto
          -297 119 59 -35 187 hhcurveto
          166 55 hlineto
          -50 -62 11 122 -69 hvcurveto
          -70 123 -11 49 -62 123 -60 118 -78 78 -175 2 rrcurveto
          2 vlineto
          244 35 182 115 240 vvcurveto
          260 -222 94 -286 vhcurveto
          -533 -45 hlineto
          -101 callsubr
          564 -78 callgsubr
          615 vlineto
          1 23 13 0 31 hhcurveto
          endchar
        </CharString>
        <CharString name="S">
          54 -35 56 -56 434 623 440 -55 55 hstemhm
          105 154 -154 292 271 297 -84 159 hintmask 10011010
          553 1407 rmoveto
          174 76 -72 -20 18 hvcurveto
          -4 vlineto
          -86 -67 -52 -94 hvcurveto
          hintmask 10100110
          4 callsubr
          152 -133 137 -277 -272 -178 -177 -218 -220 82 -110 245 -109 vhcurveto
          hintmask 10100101
          374 -166 75 -82 -127 vvcurveto
          -145 -169 -87 -161 -195 -88 64 21 -18 9 callsubr
          86 61 49 94 hvcurveto
          hintmask 01011001
          82 -57 64 -88 -96 -56 -71 -87 -134 117 -142 352 318 153 208 193 260 -124 94 -340 153 vhcurveto
          -262 118 -55 55 132 vvcurveto
          139 116 90 178 vhcurveto
          endchar
        </CharString>
        <CharString name="T">
          166 0 50 1322 55 hstem
          488 259 vstem
          1162 -33 callsubr
          -1092 hlineto
          -10 -490 rlineto
          55 hlineto
          315 59 35 120 237 10 11 -1 18 hhcurveto
          6 -1316 -3 callsubr
          -45 564 45 vlineto
          -155 10 rlineto
          -11 callsubr
          vlineto
          18 11 1 10 hhcurveto
          236 36 -120 -315 59 hvcurveto
          55 hlineto
          endchar
        </CharString>
        <CharString name="Thorn">
          143 0 50 252 55 742 61 217 50 -7 callsubr
          398 266 vstem
          637 -33 callsubr
          -564 -45 hlineto
          -101 callsubr
          564 -78 callgsubr
          249 vlineto
          -1 22 23 -1 19 hhcurveto
          316 284 125 -9 callsubr
          -132 212 hlineto
          -37 callsubr
          -84 -1025 rmoveto
          -23 -24 1 2 -23 hvcurveto
          731 vlineto
          6 42 -26 callgsubr
          hvcurveto
          endchar
        </CharString>
        <CharString name="U">
          365 -35 69 1393 -20 -104 callgsubr
          endchar
        </CharString>
        <CharString name="Uacute">
          -12 callgsubr
          422 -104 callgsubr
          789 243 -82 callsubr
        </CharString>
        <CharString name="Ucircumflex">
          365 -35 69 1820 -20 -104 callgsubr
          306 203 -90 callsubr
        </CharString>
        <CharString name="Udieresis">
          -12 callgsubr
          195 0 269 hstem
          202 256 280 115 312 64 vstem
          202 -12 callsubr
          -153 -48 callgsubr
          564 -54 callsubr
          -155 -10 rlineto
          -934 vlineto
          -160 19 -244 329 283 76 222 222 vhcurveto
          894 vlineto
          -153 -48 callgsubr
          370 0 0 vhcurveto
          -45 -8 callsubr
          -916 vlineto
          -221 -84 -270 -371 -530 -42 266 248 vhcurveto
          291 1228 -100 callsubr
        </CharString>
        <CharString name="Ugrave">
          -12 callgsubr
          427 -104 callgsubr
          694 170 -81 callgsubr
        </CharString>
        <CharString name="V">
          248 1 -21 1397 50 hstem
          380 -12 callsubr
          -14 callsubr
          561 -1392 rlineto
          45 hlineto
          475 1392 121 -38 callgsubr
          -319 -45 vlineto
          135 -10 -348 -1014 -21 callsubr
          endchar
        </CharString>
        <CharString name="W">
          778 1 -21 1043 -20 374 50 21 -20 hstem
          1016 1448 rmoveto
          -45 hlineto
          -309 -1075 -21 callsubr
          -266 999 -14 callsubr
          431 -1392 rlineto
          45 hlineto
          306 1043 rlineto
          2 hlineto
          368 -1043 rlineto
          45 hlineto
          406 1392 121 -38 callgsubr
          -317 -45 vlineto
          135 -10 -286 -995 -21 callsubr
          endchar
        </CharString>
        <CharString name="X">
          279 -13 callsubr
          919 55 rmoveto
          -174 -32 callsubr
          625 45 -55 callgsubr
          -464 747 341 570 131 -38 callgsubr
          -331 -45 vlineto
          129 -10 -307 -510 rlineto
          -2 hlineto
          -314 510 150 -38 callgsubr
          -560 -45 vlineto
          123 -10 444 -725 -356 -592 -131 -32 callsubr
          355 45 vlineto
          -150 10 319 532 rlineto
          2 hlineto
          endchar
        </CharString>
        <CharString name="Y">
          153 -13 callsubr
          519 256 vstem
          -78 callsubr
          endchar
        </CharString>
        <CharString name="Yacute">
          153 -53 callsubr
          -50 422 hstemhm
          519 256 hintmask 11010000
          -78 callsubr
          937 -46 callgsubr
        </CharString>
        <CharString name="Z">
          121 0 48 1327 52 hstem
          98 hmoveto
          970 hlineto
          31 530 rlineto
          -45 hlineto
          -31 -245 -68 -243 -211 3 -381 6 rcurveline
          691 1323 rlineto
          53 -928 vlineto
          -31 -469 rlineto
          45 hlineto
          41 273 90 137 217 4 337 6 rcurveline
          -727 -1323 rlineto
          endchar
        </CharString>
        <CharString name="a">
          -83 callgsubr
          -58 callsubr
          hintmask 10111101
          -102 callgsubr
          hintmask 01111011
          28 9 callgsubr
          318 -28 callgsubr
          539 vlineto
          274 -47 170 -340 -180 -178 -74 callsubr
          54 69 82 -45 42 -67 -10 -10 -1 -2 -11 9 callsubr
          43 25 59 72 129 hhcurveto
          164 13 -59 callsubr
          3 -33 -31 1 -29 hhcurveto
          hintmask 10111101
          -93 callgsubr
          endchar
        </CharString>
        <CharString name="aacute">
          -83 callgsubr
          535 -105 callgsubr
          65 1238 -95 callsubr
        </CharString>
        <CharString name="acircumflex">
          -83 callgsubr
          551 -105 callgsubr
          -119 1427 -92 callgsubr
        </CharString>
        <CharString name="acute">
          -578 1177 -21 413 -20 hstem
          381 1396 -95 callsubr
        </CharString>
        <CharString name="acute.case">
          -525 1600 -21 264 -20 hstem
          391 1659 -82 callsubr
        </CharString>
        <CharString name="adieresis">
          -83 callgsubr
          212 265 -56 callgsubr
          -171 -34 callgsubr
          -158 245 hintmask 1011111000100000
          -102 callgsubr
          hintmask 0111110100100000
          28 9 callgsubr
          318 -28 callgsubr
          539 vlineto
          274 -47 170 -340 -180 -178 -74 callsubr
          54 69 82 -45 42 -67 -10 -10 -1 -2 -11 9 callsubr
          43 25 59 72 129 hhcurveto
          164 13 -59 callsubr
          3 -33 -31 1 -29 hhcurveto
          hintmask 1011111000100000
          -93 callgsubr
          hintmask 1011110011000000
          -75 1221 -100 callgsubr
        </CharString>
        <CharString name="ae">
          420 -30 65 -65 91 434 45 -8 51 41 247 116 47 hstemhm
          74 242 -213 253 277 235 309 214 hintmask 1001110111000000
          676 225 rmoveto
          -158 60 115 -97 205 hhcurveto
          121 146 55 162 96 hvcurveto
          -39 24 rlineto
          -151 -90 -105 -25 -82 hhcurveto
          -140 -95 104 275 hvcurveto
          118 496 vlineto
          27 25 rlineto
          321 -116 156 -231 -99 -99 -28 -125 -90 vhcurveto
          -2 hlineto
          123 -51 -109 30 -123 hhcurveto
          -180 -188 -74 callsubr
          53 69 82 -45 43 -67 -10 -10 -1 -2 -11 hvcurveto
          4 vlineto
          43 25 69 72 129 hhcurveto
          164 33 -59 callsubr
          hintmask 0110111011000000
          3 -33 -31 1 -29 hhcurveto
          -319 -147 -77 callgsubr
          127 124 38 217 97 hvcurveto
          -358 13 rmoveto
          68 32 189 219 21 -73 callgsubr
          -103 -121 -86 -80 -48 76 101 vhcurveto
          720 751 rmoveto
          99 42 -128 -189 -26 0 -28 -2 -28 hvcurveto
          -307 -13 rlineto
          242 9 41 170 118 hhcurveto
          endchar
        </CharString>
        <CharString name="agrave">
          -83 callgsubr
          548 -105 callgsubr
          -89 1011 -87 callgsubr
        </CharString>
        <CharString name="ampersand">
          433 -35 66 175 213 92 189 84 55 -55 221 40 417 -57 57 hstemhm
          140 268 -199 199 -199 251 162 51 -51 270 -164 278 96 55 51 270 -51 51 hintmask 1111010100010110
          1040 700 rmoveto
          -399 -19 -229 -76 -146 86 -43 71 60 53 44 65 71 -53 33 -55 -25 -43 -14 -32 -19 hvcurveto
          -3 hlineto
          hintmask 1111010010101110
          -9 5 -12 17 22 vvcurveto
          34 12 60 174 vhcurveto
          201 hlineto
          14 13 0 1 14 hvcurveto
          1 -19 0 -19 -17 vvcurveto
          -355 -263 -71 -120 -205 -106 139 251 138 42 225 269 vhcurveto
          18 55 -14 hlineto
          hintmask 1111001001101110
          -162 -101 104 193 162 69 107 156 81 71 -32 -49 25 hvcurveto
          1 -4 rlineto
          -86 -4 -49 -56 -72 vvcurveto
          hintmask 1111010010101110
          -86 57 -57 75 100 46 73 72 vhcurveto
          10 vlineto
          37 -37 225 -327 -331 -102 -209 -141 -228 211 -64 166 -4 vhcurveto
          -2 vlineto
          hintmask 1110110100101110
          -287 -25 -159 -183 -219 vvcurveto
          -226 128 -196 399 346 144 213 275 20 -1 21 -2 22 vhcurveto
          308 33 16 197 70 vvcurveto
          146 -86 43 -71 -60 -53 -44 -65 -71 53 -33 55 25 43 14 32 19 vhcurveto
          3 hlineto
          hintmask 1111010100101101
          9 -5 12 -17 -22 vvcurveto
          -34 -12 -60 -174 vhcurveto
          endchar
        </CharString>
        <CharString name="aring">
          -83 callgsubr
          142 51 308 51 -56 callgsubr
          -115 149 171 150 -108 245 hintmask 1011111100010000
          -102 callgsubr
          hintmask 0111111010010000
          28 9 callgsubr
          318 -28 callgsubr
          539 vlineto
          274 -47 170 -340 -180 -178 -74 callsubr
          54 69 82 -45 42 -67 -10 -10 -1 -2 -11 9 callsubr
          43 25 59 72 129 hhcurveto
          164 13 -59 callsubr
          3 -33 -31 1 -29 hhcurveto
          hintmask 1011111100010000
          -93 callgsubr
          hintmask 1011111001100000
          -362 1221 -65 callgsubr
        </CharString>
        <CharString name="asciicircum">
          233 971 -21 512 -20 hstem
          634 -11 callgsubr
          rmoveto
          -554 -512 rlineto
          127 hlineto
          440 404 rlineto
          2 hlineto
          441 -404 rlineto
          129 hlineto
          -547 512 rlineto
          endchar
        </CharString>
        <CharString name="asciitilde">
          35 437 199 -68 68 -68 193 hstemhm
          hintmask 01000000
          403 761 rmoveto
          -190 -74 -162 -150 -45 hvcurveto
          57 hlineto
          71 28 24 48 90 hhcurveto
          hintmask 10000000
          123 152 -131 163 hhcurveto
          172 74 172 150 34 hvcurveto
          -57 hlineto
          -72 -27 -49 -51 -79 hhcurveto
          hintmask 00100000
          -172 -75 125 -149 hhcurveto
          endchar
        </CharString>
        <CharString name="asterisk">
          -133 -11 callgsubr
          -20 hstemhm
          350 139 -49 139 hintmask 11000000
          489 1071 rmoveto
          hintmask 10100000
          131 90 53 90 vvcurveto
          54 -30 63 -82 vhcurveto
          hintmask 11000000
          -82 -35 -63 -54 hvcurveto
          -90 90 -55 -131 vvcurveto
          -123 41 -24 102 -86 27 -52 16 -69 -8 -27 -78 -25 -78 50 -53 51 -16 86 -29 80 70 125 -41 -78 -105 -105 9 -51 -74 -33 -43 -12 -68 66 -51 65 -47 66 31 33 43 rrcurveto
          53 73 -41 99 78 104 75 -106 -41 -97 56 -71 30 -43 60 -33 69 45 66 49 -10 72 -31 45 -53 72 -107 -9 -73 107 122 39 80 -68 86 31 50 16 49 45 -21 80 rrcurveto
          -26 78 -72 12 -51 -14 -86 -29 -25 -106 -125 -37 rrcurveto
          endchar
        </CharString>
        <CharString name="at">
          442 -195 55 298 43 -43 75 727 57 241 56 hstemhm
          78 65 255 153 331 145 358 68 hintmask 1101111110000000
          952 1000 rmoveto
          -6 -50 rlineto
          34 -39 -59 33 -89 hhcurveto
          -279 -82 -302 -227 -213 112 -117 161 59 95 22 84 65 hvcurveto
          -83 25 81 -34 93 hhcurveto
          167 197 157 346 380 -270 284 -378 -457 -270 -344 -424 -427 253 -314 461 177 197 57 170 158 hvcurveto
          -37 34 rlineto
          -152 -138 -173 -54 -187 hhcurveto
          -449 -197 334 369 362 255 333 377 383 227 -260 -365 -238 -133 -194 -138 -56 -31 25 87 110 46 330 27 232 hvcurveto
          -321 -25 rmoveto
          76 51 -32 -38 33 hvcurveto
          -24 -211 -33 -262 -94 vvcurveto
          hintmask 1011111110000000
          -58 -49 -56 -32 -57 hhcurveto
          -112 -57 103 141 233 56 250 172 hvcurveto
          199 -133 rmoveto
          -1 0 0 1 -1 vhcurveto
          0 0 -1 0 -1 0 1 1 vhcurveto
          endchar
        </CharString>
        <CharString name="atilde">
          -83 callgsubr
          230 142 -51 51 92 -20 -58 callsubr
          hintmask 1011110110100000
          -102 callgsubr
          hintmask 0111110101100000
          28 9 callgsubr
          318 -28 callgsubr
          539 vlineto
          274 -47 170 -340 -180 -178 -74 callsubr
          54 69 82 -45 42 -67 -10 -10 -1 -2 -11 9 callsubr
          43 25 59 72 129 hhcurveto
          164 13 -59 callsubr
          3 -33 -31 1 -29 hhcurveto
          hintmask 1011101110100000
          -93 callgsubr
          -253 1197 rmoveto
          hintmask 1011110110100000
          -95 callgsubr
          hintmask 1011101110100000
          -96 callgsubr
        </CharString>
        <CharString name="b">
          23 -30 60 -19 -21 964 80 414 -20 hstemhm
          147 245 357 256 hintmask 01111100
          392 -45 callsubr
          -1358 41 vlineto
          204 88 rlineto
          hintmask 10111100
          -84 60 92 -24 63 hhcurveto
          275 123 249 291 457 -219 67 -113 -113 -84 -34 -135 -80 hvcurveto
          -4 hlineto
          183 89 rmoveto
          106 68 -88 -346 -188 -6 -302 -189 -86 -76 91 94 hvcurveto
          480 vlineto
          128 84 131 99 vhcurveto
          endchar
        </CharString>
        <CharString name="backslash">
          -216 -50 callsubr
          906 -495 rmoveto
          -841 1957 -2 callsubr
          842 -1957 rlineto
          endchar
        </CharString>
        <CharString name="bar">
          -640 -50 callsubr
          152 122 vstem
          274 -495 rmoveto
          1957 -122 -1957 vlineto
          endchar
        </CharString>
        <CharString name="braceleft">
          -382 -495 54 895 60 894 54 hstem
          221 218 vstem
          139 486 rmoveto
          169 29 131 85 167 204 -19 86 64 vvcurveto
          181 59 106 185 vhcurveto
          12 54 -57 hlineto
          -281 -117 -149 -275 hvcurveto
          -94 11 -103 -91 vvcurveto
          -117 -32 -119 -162 vhcurveto
          -47 -60 47 hlineto
          162 32 -119 -117 hvcurveto
          -91 -11 -103 -94 vvcurveto
          -275 117 -150 281 vhcurveto
          57 54 -12 hlineto
          -185 -59 107 180 hvcurveto
          64 19 87 204 vvcurveto
          167 -131 85 -169 29 vhcurveto
          endchar
        </CharString>
        <CharString name="braceright">
          -381 -495 54 894 60 895 54 hstem
          246 218 vstem
          546 481 rmoveto
          -169 -29 -131 -85 -167 -204 19 -86 -64 vvcurveto
          -181 -59 -106 -185 vhcurveto
          -12 -54 57 hlineto
          281 117 149 275 hvcurveto
          94 -11 103 91 vvcurveto
          117 32 119 162 vhcurveto
          47 60 -47 hlineto
          -162 -32 119 117 hvcurveto
          91 11 103 94 vvcurveto
          275 -117 150 -281 vhcurveto
          -57 -54 12 hlineto
          185 59 -107 -180 hvcurveto
          -64 -19 -87 -204 vvcurveto
          -167 131 -85 169 -29 vhcurveto
          endchar
        </CharString>
        <CharString name="bracketleft">
          -4 callsubr
          152 195 vstem
          152 -495 rmoveto
          358 60 hlineto
          -163 1 rlineto
          1835 vlineto
          159 1 rlineto
          60 -353 vlineto
          endchar
        </CharString>
        <CharString name="bracketright">
          -4 callsubr
          200 194 vstem
          394 -11 callgsubr
          rmoveto
          -353 -60 hlineto
          159 -1 rlineto
          -1835 vlineto
          -163 -1 rlineto
          -60 358 vlineto
          endchar
        </CharString>
        <CharString name="brokenbar">
          -608 -50 callsubr
          168 122 vstem
          290 745 2 callsubr
          122 -1240 2 callsubr
          endchar
        </CharString>
        <CharString name="bullet">
          -453 476 453 hstem
          89 435 vstem
          89 698 rmoveto
          -127 91 -95 127 133 84 95 127 133 -84 98 -133 -127 -91 -98 -133 vhcurveto
          endchar
        </CharString>
        <CharString name="c">
          -120 -30 69 602 245 98 50 hstem
          81 256 281 252 vstem
          -86 callgsubr
          endchar
        </CharString>
        <CharString name="caron">
          -411 1168 -21 438 -20 hstem
          329 1147 rmoveto
          286 398 -41 39 -233 -231 -21 callsubr
          -221 232 -46 -44 254 -394 rlineto
          endchar
        </CharString>
        <CharString name="caron.case">
          -240 1583 -21 345 -20 hstem
          746 1866 rmoveto
          -30 41 -299 -158 -21 callsubr
          -304 155 -29 -42 325 -300 rlineto
          4 hlineto
          endchar
        </CharString>
        <CharString name="ccedilla">
          -120 -493 -21 316 82 86 69 602 245 98 50 hstemhm
          81 256 173 168 -60 252 hintmask 11111101
          -86 callgsubr
          -7 -1150 -39 callgsubr
          hintmask 11111110
          -45 callgsubr
        </CharString>
        <CharString name="cedilla">
          -502 -493 -21 316 82 132 -20 hstem
          316 168 vstem
          347 -116 -39 callgsubr
          -45 callgsubr
        </CharString>
        <CharString name="cedilla.case">
          -502 -539 -21 344 80 152 -20 hstem
          316 176 vstem
          347 -136 -73 callsubr
        </CharString>
        <CharString name="cent">
          -84 -174 -21 836 245 98 49 129 -20 hstem
          100 256 152 82 47 252 vstem
          590 -195 rmoveto
          166 vlineto
          115 8 118 54 88 160 -39 23 rcurveline
          -163 -95 -105 -14 -70 hhcurveto
          -12 944 hlineto
          1 4 5 0 5 hhcurveto
          -67 callgsubr
          135 -123 119 -176 9 hvcurveto
          129 -82 -132 vlineto
          -282 -34 -126 -276 -224 vvcurveto
          -301 115 -202 293 -21 vhcurveto
          -167 vlineto
          -152 695 rmoveto
          217 42 179 110 63 vhcurveto
          -899 vlineto
          -88 46 -64 127 267 vvcurveto
          endchar
        </CharString>
        <CharString name="circumflex">
          -371 1188 -21 418 -20 hstem
          356 1585 -92 callgsubr
        </CharString>
        <CharString name="circumflex.case">
          -240 1594 -21 325 -20 hstem
          120 1619 -90 callsubr
        </CharString>
        <CharString name="colon">
          -556 -35 275 519 275 hstem
          117 276 vstem
          117 100 -57 callgsubr
          endchar
        </CharString>
        <CharString name="comma">
          -77 callsubr
        </CharString>
        <CharString name="copyright">
          428 -105 54 154 80 783 63 144 54 hstemhm
          81 71 235 223 241 218 274 70 vstemhm
          788 1029 rmoveto
          -280 -121 -259 -209 -276 124 -182 288 109 112 43 150 85 hvcurveto
          -37 25 rlineto
          -110 -72 -98 -28 -61 hhcurveto
          -115 -112 73 309 235 54 166 158 83 53 -41 -22 15 hvcurveto
          -5 vlineto
          -74 14 -48 -54 -64 vvcurveto
          hintmask 11111111
          -61 42 -47 65 72 39 55 59 122 -115 107 -166 vhcurveto
          -707 -469 rmoveto
          -366 282 -299 383 384 283 299 366 368 -283 299 -384 -383 -282 -299 -368 vhcurveto
          71 hmoveto
          337 244 276 350 352 245 -276 -337 -336 -245 -275 -352 -350 -244 275 336 vhcurveto
          endchar
        </CharString>
        <CharString name="currency">
          100 241 -21 56 80 688 80 60 -20 hstem
          159 100 648 100 vstem
          159 700 rmoveto
          -103 35 -95 60 -73 vhcurveto
          -154 -153 56 -56 153 153 rlineto
          -61 72 95 -36 107 hhcurveto
          107 94 36 61 73 hvcurveto
          153 -153 56 56 -154 153 rlineto
          60 73 35 95 103 vvcurveto
          104 -36 95 -61 73 vhcurveto
          156 156 -56 56 -155 -155 rlineto
          59 -73 -93 36 -106 hhcurveto
          -106 -94 -36 -59 -72 hvcurveto
          -155 155 -56 -56 155 -155 rlineto
          -61 -74 -35 -95 -104 vvcurveto
          100 hmoveto
          190 126 154 198 198 126 -154 -190 -190 -126 -154 -198 -198 -126 154 190 vhcurveto
          endchar
        </CharString>
        <CharString name="d">
          40 -30 84 -54 54 923 57 0 314 100 -20 hstemhm
          82 256 359 246 hintmask 01011110
          698 142 rmoveto
          13 -142 rlineto
          334 41 hlineto
          -102 10 rlineto
          1368 vlineto
          -19 -98 callsubr
          -365 vlineto
          39 -47 -86 12 -39 hhcurveto
          -309 -134 -274 -283 hvcurveto
          hintmask 10101110
          -438 248 -69 94 109 81 33 139 82 vhcurveto
          1 179 rmoveto
          -125 -82 -142 -98 -93 -86 83 350 168 11 322 221 47 43 -15 -28 37 vhcurveto
          endchar
        </CharString>
        <CharString name="dagger">
          -185 -474 -21 1284 4 callgsubr
          -30 501 -123 123 -54 118 -118 496 hintmask 10110100
          471 116 rmoveto
          164 29 81 50 148 vhcurveto
          -31 76 -31 98 -5 callsubr
          hintmask 11010001
          -31 callgsubr
          hintmask 10110010
          -27 callsubr
          hintmask 10110100
          -71 -26 -71 -61 hvcurveto
          hintmask 10110010
          -18 callgsubr
          hintmask 11011000
          -46 callsubr
          -99 -31 -76 rrcurveto
          50 -148 28 -85 -160 vvcurveto
          hintmask 11010100
          -276 -63 -99 -104 vvcurveto
          -61 26 -71 71 vhcurveto
          hintmask 11010010
          68 22 69 61 hvcurveto
          hintmask 11010100
          106 -64 91 284 vvcurveto
          endchar
        </CharString>
        <CharString name="daggerdbl">
          -55 -474 -21 524 149 -101 54 658 4 callgsubr
          34 496 -118 118 -49 49 -49 118 -118 496 hintmask 1011010001000000
          397 489 rmoveto
          31 -76 31 -129 22 -153 rrcurveto
          -101 -96 31 13 -100 hvcurveto
          hintmask 1101011000000000
          2 -14 -15 1 -16 hhcurveto
          -53 -52 -15 -60 -59 50 -15 54 16 15 1 2 15 hvcurveto
          hintmask 1011010100000000
          100 13 97 31 101 1 rrcurveto
          -20 -280 -50 -56 -106 vvcurveto
          -61 22 -69 68 vhcurveto
          hintmask 1011010001000000
          71 26 71 61 hvcurveto
          hintmask 1011011000000000
          104 -50 64 -19 272 vhcurveto
          100 -1 97 -31 100 -13 rrcurveto
          hintmask 1100110000100000
          -2 15 16 -1 15 hhcurveto
          54 50 15 59 60 -52 15 -53 -15 -15 -1 -2 -15 hvcurveto
          -100 -13 -96 -31 -100 -1 21 153 31 130 31 76 rrcurveto
          hintmask 1100110100000000
          -31 76 -31 118 -5 callsubr
          hintmask 1101010000100000
          -31 callgsubr
          hintmask 1100110001000000
          -27 callsubr
          hintmask 1100110100000000
          -71 -26 -71 -61 hvcurveto
          hintmask 1100110010000000
          -18 callgsubr
          hintmask 1101011000000000
          -46 callsubr
          -119 -31 -76 rrcurveto
          endchar
        </CharString>
        <CharString name="degree">
          -278 820 86 470 86 hstem
          73 108 427 107 vstem
          73 1140 rmoveto
          -176 136 -144 185 185 136 144 176 178 -136 144 -185 -185 -136 -144 -178 vhcurveto
          108 hmoveto
          128 81 108 132 132 82 -108 -128 -126 -82 -108 -132 -132 -81 108 126 vhcurveto
          endchar
        </CharString>
        <CharString name="dieresis">
          -330 -6 callsubr
          hstem
          80 -34 callgsubr
          vstem
          423 1379 -100 callgsubr
        </CharString>
        <CharString name="dieresis.case">
          -281 1616 269 hstem
          80 -26 callsubr
          vstem
          80 1751 -100 callsubr
        </CharString>
        <CharString name="divide">
          80 93 275 218 110 191 275 hstem
          435 276 vstem
          435 228 -57 callgsubr
          -318 -326 -24 callgsubr
        </CharString>
        <CharString name="dollar">
          -57 -223 -21 210 54 -54 440 617 438 -55 55 192 -20 hstemhm
          61 139 -139 305 116 56 66 297 -91 158 hintmask 1100111010100000
          538 -244 rmoveto
          209 vlineto
          290 6 140 237 170 vvcurveto
          236 -146 136 -284 108 vhcurveto
          548 vlineto
          149 -9 53 -63 17 -18 rrcurveto
          -4 vlineto
          hintmask 1101010111000000
          -86 -67 -52 -94 4 callsubr
          145 -111 131 -252 11 hvcurveto
          192 -56 -192 vlineto
          -242 -9 -179 -175 -230 vvcurveto
          -158 69 -164 250 -101 vhcurveto
          37 -15 34 -14 31 -14 rrcurveto
          -561 vlineto
          -174 7 -72 66 -18 20 rrcurveto
          4 vlineto
          86 62 49 94 hvcurveto
          hintmask 1010111010100000
          82 -57 64 -89 -96 -55 -78 -80 -145 115 -125 298 -12 vhcurveto
          -210 vlineto
          -282 1403 rmoveto
          137 114 103 168 7 vhcurveto
          -526 vlineto
          -190 79 -92 95 105 vvcurveto
          610 -891 rmoveto
          -127 -125 -107 -147 -13 vhcurveto
          535 vlineto
          230 -109 42 -73 -106 vvcurveto
          endchar
        </CharString>
        <CharString name="dotlessi">
          -2 callgsubr
          1024 -84 callgsubr
          endchar
        </CharString>
        <CharString name="e">
          -44 callgsubr
          -105 callsubr
          endchar
        </CharString>
        <CharString name="eacute">
          -44 callgsubr
          535 -20 -105 callsubr
          198 407 -95 callsubr
        </CharString>
        <CharString name="ecircumflex">
          -44 callgsubr
          551 -20 -105 callsubr
          -6 596 -92 callgsubr
        </CharString>
        <CharString name="edieresis">
          -44 callgsubr
          212 265 hstemhm
          81 256 -128 -34 callgsubr
          -122 233 hintmask 11111001
          -107 callsubr
          hintmask 11110110
          38 390 -100 callgsubr
        </CharString>
        <CharString name="egrave">
          -44 callgsubr
          548 -20 -105 callsubr
          54 180 -87 callgsubr
        </CharString>
        <CharString name="eight">
          69 -43 callgsubr
          hstemhm
          131 154 -154 201 480 144 -97 188 hintmask 11011000
          639 851 rmoveto
          -136 98 -171 119 157 vvcurveto
          110 106 72 119 148 107 -84 -178 -84 -23 -119 -133 -104 vhcurveto
          300 325 rmoveto
          168 -182 131 -203 -254 -186 -155 -209 -114 80 -157 191 -139 vhcurveto
          -140 -86 -145 -120 -173 vvcurveto
          -221 174 -123 295 vhcurveto
          hintmask 11100100
          316 145 191 192 226 -179 118 -168 116 hvcurveto
          hintmask 11101000
          138 87 118 95 173 vvcurveto
          hintmask 11100100
          -97 -913 rmoveto
          -150 -132 -80 -141 -235 -66 181 118 153 74 98 99 80 vhcurveto
          315 -211 86 -66 -123 vvcurveto
          endchar
        </CharString>
        <CharString name="emdash">
          379 592 110 hstem
          156 702 rmoveto
          -110 1133 2 callgsubr
        </CharString>
        <CharString name="endash">
          1 -52 callsubr
          833 2 callgsubr
        </CharString>
        <CharString name="equal">
          80 398 110 290 110 hstem
          117 908 -30 callsubr
          -912 -400 -24 callgsubr
        </CharString>
        <CharString name="eth">
          36 -30 45 956 53 424 -20 127 -20 hstem
          80 256 403 252 vstem
          313 1217 rmoveto
          36 -31 115 144 120 -74 68 -129 38 -138 rlinecurve
          28 -58 -62 7 -51 hhcurveto
          -255 -184 -233 -295 -275 134 -251 321 271 185 195 392 341 -175 359 -303 135 hvcurveto
          96 121 -51 42 -102 -141 rlineto
          21 -65 -70 13 -75 hhcurveto
          -12 -13 0 -1 -12 hvcurveto
          -1 -50 rlineto
          80 68 -15 -25 58 hvcurveto
          325 -861 rmoveto
          -277 -58 -204 -150 -145 -50 206 287 288 46 175 190 49 48 -18 -31 37 vhcurveto
          33 -159 0 -163 -104 vvcurveto
          endchar
        </CharString>
        <CharString name="exclam">
          -524 -20 275 1207 -20 hstemhm
          125 169 -46 168 hintmask 11100000
          294 366 rmoveto
          hintmask 11010000
          14 438 108 322 168 vvcurveto
          82 -45 86 -96 vhcurveto
          hintmask 11100000
          -96 -54 -86 -82 hvcurveto
          -168 109 -322 14 -438 vhcurveto
          0 43 0 3 vhcurveto
          -161 -251 rmoveto
          -81 54 -54 81 84 57 54 81 84 -57 56 -84 -81 -54 -56 -84 vhcurveto
          endchar
        </CharString>
        <CharString name="exclamdown">
          -528 -139 -21 1207 275 hstemhm
          124 168 -46 46 -46 169 hintmask 11100000
          246 936 rmoveto
          3 43 0 0 hvcurveto
          hintmask 11001000
          14 -438 109 -322 -168 vvcurveto
          -82 -54 -86 -96 vhcurveto
          hintmask 11100000
          -96 -45 86 82 hvcurveto
          hintmask 11010000
          168 108 322 14 438 vhcurveto
          161 251 rmoveto
          81 -54 54 -81 -84 -57 -54 -81 -84 57 -56 84 81 54 56 84 vhcurveto
          endchar
        </CharString>
        <CharString name="f">
          -386 0 46 910 5 callsubr
          183 246 90 229 hintmask 11011100
          429 51 rmoveto
          -4 callgsubr
          233 vlineto
          70 4 -15 callsubr
          -47 -33 vvcurveto
          hintmask 11101100
          -19 callsubr
          -244 -16 -428 -5 vhcurveto
          -147 -43 hlineto
          147 -10 rlineto
          -900 -29 callsubr
          491 41 vlineto
          endchar
        </CharString>
        <CharString name="fi">
          185 0 46 907 46 141 308 -46 46 hstemhm
          183 246 416 245 hintmask 11011100
          429 51 rmoveto
          898 vlineto
          416 8 rlineto
          -906 -97 callsubr
          944 vlineto
          -18 -47 callsubr
          -27 -502 4 rlineto
          136 vlineto
          209 131 56 147 113 58 -32 -12 4 vhcurveto
          -4 vlineto
          -29 -18 -16 -53 -29 vvcurveto
          hintmask 11101100
          -63 44 -51 74 73 41 57 63 146 -181 42 -190 -140 -368 -16 -429 -7 vhcurveto
          -147 1 rlineto
          -43 vlineto
          -21 callgsubr
          endchar
        </CharString>
        <CharString name="five">
          -37 -35 57 -57 421 419 60 377 185 142 -20 hstemhm
          86 295 -230 52 489 268 hintmask 10111101
          153 737 rmoveto
          45 -26 rlineto
          49 45 84 45 88 hhcurveto
          277 0 -268 -142 -213 -76 -160 -166 -148 -55 60 19 -16 hvcurveto
          4 vlineto
          86 64 50 92 hvcurveto
          hintmask 01111101
          82 -58 57 -88 -94 -55 -77 -78 -150 143 -116 254 330 147 240 192 234 -115 234 -374 vhcurveto
          hintmask 10111011
          -117 -87 -36 -43 -64 hvcurveto
          459 vlineto
          653 -6 10 330 rlineto
          -55 hlineto
          -139 -15 -37 -3 -217 hhcurveto
          -393 hlineto
          endchar
        </CharString>
        <CharString name="fl">
          197 0 46 910 48 389 55 hstem
          183 246 426 245 vstem
          855 51 rmoveto
          -103 -96 callsubr
          1368 vlineto
          -18 -64 callsubr
          -111 -22 rlineto
          24 -72 -106 35 -105 hhcurveto
          -125 -231 -9 -435 -8 hvcurveto
          -147 -43 hlineto
          -21 callgsubr
          -143 10 rlineto
          -4 callgsubr
          177 vlineto
          116 39 96 117 171 99 -68 -217 vhcurveto
          endchar
        </CharString>
        <CharString name="florin">
          -405 -495 45 -45 287 1164 5 callsubr
          -137 229 97 232 97 229 cntrmask 00000111
          hintmask 10101111
          421 1237 rmoveto
          70 11 -15 callsubr
          -51 -29 vvcurveto
          hintmask 10110111
          -19 callsubr
          -237 -16 -428 -5 vhcurveto
          -184 -43 hlineto
          184 -6 rlineto
          -1239 vlineto
          -70 -11 -96 -78 -26 -21 12 13 -4 9 callsubr
          29 18 14 51 29 vvcurveto
          hintmask 01110111
          55 -39 60 -74 -73 -43 -56 -63 -94 78 -74 147 92 241 16 441 vhcurveto
          989 vlineto
          248 10 rlineto
          43 -248 vlineto
          endchar
        </CharString>
        <CharString name="foundryicon">
          1097 283 59 25 65 -65 67 -31 111 -80 144 -86 86 -64 68 -4 69 hstemhm
          104 78 -78 236 -236 474 372 209 -184 184 47 72 154 73 58 73 -73 98 188 183 -68 68 -33 callgsubr
          2062 578 rmoveto
          -17 callsubr
          3 -8 -3 1 -11 hhcurveto
          -15 -13 -9 -12 -11 hvcurveto
          12 -16 -23 9 -25 hhcurveto
          -56 -32 -33 -43 -27 10 -19 19 -11 hvcurveto
          -19 -18 -10 -21 -23 vvcurveto
          -16 6 -18 15 -11 vhcurveto
          hintmask 100100011001011100100000
          94 -59 55 hlineto
          4 11 9 15 21 vvcurveto
          51 -29 22 -51 vhcurveto
          -37 hlineto
          -33 callgsubr
          31 vlineto
          -1 3 4 -1 6 hhcurveto
          76 28 32 44 6 callsubr
          2 -1 2 -1 2 vhcurveto
          32 hlineto
          -33 callgsubr
          -1560 -156 rmoveto
          -60 -19 -29 -15 -40 hhcurveto
          -23 -22 6 8 -9 hvcurveto
          53 35 vlineto
          21 14 4 19 8 hvcurveto
          -28 hlineto
          hintmask 100100010101011101000000
          -50 141 rlineto
          -20 hlineto
          hintmask 110010000101011101000000
          64 78 vlineto
          28 -101 11 -49 rlineto
          hintmask 100100011001011101000000
          22 86 rlineto
          -18 hlineto
          -33 callgsubr
          64 88 vlineto
          -17 callsubr
          -64 vlineto
          -33 callgsubr
          -225 -80 rmoveto
          -66 hlineto
          -51 -25 25 51 49 22 25 45 hvcurveto
          -17 callsubr
          5 3 -1 -1 3 hvcurveto
          -31 64 82 vlineto
          hintmask 110000010011011101000000
          8 -27 -29 6 -24 hhcurveto
          -92 -48 -57 -88 -84 52 -51 84 32 28 5 11 24 hvcurveto
          -33 callgsubr
          1208 -16 rmoveto
          65 39 40 68 hvcurveto
          -17 callsubr
          68 -38 39 -64 -64 -38 -41 -68 -68 36 -38 64 vhcurveto
          -541 200 rmoveto
          -53 51 vlineto
          35 10 -9 -11 hvcurveto
          hintmask 101001001000111101000000
          -2 -32 vlineto
          -60 -20 -25 -37 -41 30 -22 39 19 18 4 12 15 hvcurveto
          -9 7 15 -5 23 hhcurveto
          15 13 2 8 13 hvcurveto
          55 -23 70 vlineto
          -17 callsubr
          49 -30 29 -64 -27 -22 -7 -8 -25 vhcurveto
          hintmask 101000101001011011000000
          -47 -133 rmoveto
          -53 vlineto
          -11 -23 -28 -3 -25 hhcurveto
          -72 -36 39 65 68 32 43 68 56 34 -37 -49 -11 -1 -13 -3 -13 hvcurveto
          -112 hlineto
          -19 7 17 -6 27 hhcurveto
          776 80 rmoveto
          hintmask 110010001001011011000000
          64 70 vlineto
          20 -33 rlineto
          -17 callsubr
          21 12 16 16 23 hhcurveto
          -33 callgsubr
          8 10 -1 -3 7 6 callsubr
          -64 -70 -10 callgsubr
          18 vlineto
          hintmask 110000100011011011000000
          80 vlineto
          -1105 hmoveto
          hintmask 110010000011011101000000
          64 69 vlineto
          21 -33 rlineto
          -17 callsubr
          23 13 14 14 24 hhcurveto
          -33 callgsubr
          10 8 -1 -3 6 6 callsubr
          -64 -69 -10 callgsubr
          20 vlineto
          hintmask 110000100011011101000000
          80 vlineto
          604 -88 rmoveto
          -38 19 -19 37 16 15 3 5 14 vhcurveto
          -33 callgsubr
          57 -29 vlineto
          hintmask 110000011001011101000000
          213 -96 -63 24 vlineto
          127 -176 rmoveto
          -21 14 -18 27 29 16 18 21 23 -16 18 -29 -27 -14 -18 -23 vhcurveto
          201 14 rmoveto
          -19 -10 14 39 35 10 14 19 19 10 -14 -35 -39 -10 -14 -19 hvcurveto
          383 84 rmoveto
          21 8 10 17 13 7 -10 -21 -21 -7 -10 -13 -17 -8 10 21 vhcurveto
          -852 -88 rmoveto
          -12 -9 6 12 13 9 6 18 hvcurveto
          16 -31 hlineto
          -7 -8 -6 1 -8 hhcurveto
          -207 110 rmoveto
          -13 -9 -11 -21 -5 hvcurveto
          52 hlineto
          20 -6 12 -19 vhcurveto
          endchar
        </CharString>
        <CharString name="four">
          46 0 50 280 49 1083 -20 hstem
          581 246 vstem
          827 330 rmoveto
          256 57 hlineto
          -256 -3 rlineto
          1078 -55 vlineto
          -762 -1085 rlineto
          -47 571 -275 -8 callsubr
          -45 553 -78 callgsubr
          -246 1036 rmoveto
          -709 vlineto
          -497 -5 rlineto
          3 vlineto
          494 711 rlineto
          endchar
        </CharString>
        <CharString name="foursuperior">
          -358 710 199 -48 48 555 -20 hstemhm
          328 185 hintmask 01110000
          43 861 rmoveto
          285 -100 hlineto
          -103 -10 rlineto
          hintmask 10110000
          -41 391 -79 callsubr
          hintmask 01110000
          100 104 54 vlineto
          -104 -1 rlineto
          550 -87 vlineto
          -383 -554 rlineto
          285 326 rmoveto
          -326 vlineto
          -234 -1 rlineto
          2 vlineto
          232 325 rlineto
          endchar
        </CharString>
        <CharString name="fraction">
          -315 21 -21 -11 callgsubr
          -20 hstem
          19 hmoveto
          -66 callgsubr
          endchar
        </CharString>
        <CharString name="g">
          55 -495 52 790 45 485 223 -111 45 -45 111 hstemhm
          66 178 -129 129 -129 246 326 246 -21 111 -111 211 hintmask 1101001010000000
          529 -5 callgsubr
          -232 -182 -150 -199 -125 61 -110 124 -58 hvcurveto
          -2 vlineto
          -79 -23 -118 -83 -128 vvcurveto
          -111 77 -57 109 -33 vhcurveto
          -2 vlineto
          hintmask 1110010001000000
          -62 -1 -161 -51 -157 vvcurveto
          -203 291 -36 184 356 126 200 154 233 -112 70 -356 -186 -146 22 70 46 49 44 79 28 vhcurveto
          -16 50 59 -9 67 hhcurveto
          hintmask 1110010010000000
          233 173 139 201 81 -31 81 -60 64 hvcurveto
          23 59 37 47 35 7 rrcurveto
          -4 vlineto
          -11 -18 0 -19 -12 vvcurveto
          -62 43 -34 60 vhcurveto
          hintmask 1100110000100000
          55 39 47 59 66 -43 51 -80 -98 -62 -87 -66 -35 hvcurveto
          hintmask 1101010001000000
          53 -67 -92 34 -117 hhcurveto
          383 -1261 rmoveto
          -125 -125 -91 -209 -156 -178 46 172 116 84 52 2 2 vhcurveto
          248 -39 334 84 -217 vvcurveto
          -387 619 rmoveto
          hintmask 1101000110000000
          -109 -55 107 192 188 59 110 109 114 44 -97 -207 -188 -50 -105 -112 hvcurveto
          endchar
        </CharString>
        <CharString name="germandbls">
          180 -30 47 4 -21 113 236 1054 45 hstemhm
          163 245 74 250 103 234 -150 251 hintmask 01111110
          670 800 rmoveto
          194 36 205 81 192 vvcurveto
          291 -274 48 -168 -114 -350 -16 -441 vhcurveto
          -940 -29 callsubr
          347 vlineto
          1 1147 rlineto
          108 38 148 180 94 114 -40 -257 -212 -158 -78 -73 vhcurveto
          -45 -49 46 hlineto
          hintmask 10111101
          167 147 -33 -429 -169 -58 -119 -118 -81 -67 43 55 -13 hvcurveto
          2 vlineto
          -3 11 11 -1 10 hhcurveto
          70 48 47 72 hvcurveto
          65 -2 -43 52 -74 hhcurveto
          -83 -48 -70 -77 -170 138 -62 150 316 84 234 162 351 -246 82 -215 hvcurveto
          -13 -13 -1 -13 hhcurveto
          endchar
        </CharString>
        <CharString name="grave">
          -578 1190 -21 413 -20 hstem
          338 1169 -87 callgsubr
        </CharString>
        <CharString name="grave.case">
          -525 1607 -21 262 -20 hstem
          463 1586 -81 callgsubr
        </CharString>
        <CharString name="greater">
          3 callgsubr
          1002 677 rmoveto
          -912 437 rlineto
          -123 vlineto
          747 -346 rlineto
          -2 vlineto
          -747 -347 rlineto
          -122 vlineto
          912 445 rlineto
          endchar
        </CharString>
        <CharString name="guillemotleft">
          0 callgsubr
          80 479 rmoveto
          357 -323 36 37 -222 304 rlineto
          1 vlineto
          222 304 -36 37 -357 -323 rlineto
          340 -37 rmoveto
          357 -353 36 37 -222 334 rlineto
          1 vlineto
          222 334 -36 37 -357 -353 rlineto
          endchar
        </CharString>
        <CharString name="guillemotright">
          0 callgsubr
          820 516 rmoveto
          -357 323 -36 -37 222 -304 rlineto
          -1 vlineto
          -222 -304 36 -37 357 323 rlineto
          -340 37 rmoveto
          -357 353 -36 -37 222 -334 rlineto
          -1 vlineto
          -222 -334 36 -37 357 353 rlineto
          endchar
        </CharString>
        <CharString name="guilsinglleft">
          1 callgsubr
          47 625 rmoveto
          429 -388 43 45 -267 364 rlineto
          2 vlineto
          267 364 -43 45 -429 -388 rlineto
          endchar
        </CharString>
        <CharString name="guilsinglright">
          1 callgsubr
          548 669 rmoveto
          -429 388 -43 -45 267 -364 rlineto
          -2 vlineto
          -267 -364 43 -45 429 388 rlineto
          endchar
        </CharString>
        <CharString name="h">
          83 -6 callgsubr
          414 -20 hstem
          164 245 342 246 vstem
          405 1419 rmoveto
          -14 -98 callsubr
          -1297 -97 callsubr
          596 vlineto
          178 86 119 119 35 102 -30 callgsubr
          450 41 vlineto
          -102 10 rlineto
          651 vlineto
          293 -178 39 -102 -158 8 callsubr
          vhcurveto
          -4 hlineto
          endchar
        </CharString>
        <CharString name="hyphen">
          -32 callgsubr
        </CharString>
        <CharString name="i">
          -480 21 -21 -6 callsubr
          7 callgsubr
          vstem
          425 995 rmoveto
          -18 -65 callsubr
          -259 1328 -31 callsubr
        </CharString>
        <CharString name="iacute">
          -2 callgsubr
          1569 -84 callgsubr
          40 1345 -95 callsubr
        </CharString>
        <CharString name="icircumflex">
          -2 callgsubr
          1585 -84 callgsubr
          -154 1534 -92 callgsubr
        </CharString>
        <CharString name="idieresis">
          -2 callgsubr
          -6 callsubr
          hstemhm
          -29 233 -25 245 -110 233 hintmask 11010000
          424 995 -61 callsubr
          2 -41 121 2 rlineto
          -875 -97 callsubr
          hintmask 11101000
          -110 1328 -100 callgsubr
        </CharString>
        <CharString name="igrave">
          -2 callgsubr
          1582 -20 hstemhm
          57 367 -245 245 hintmask 11010000
          424 995 -61 callsubr
          2 -41 121 2 rlineto
          -875 -97 callsubr
          -114 1118 -75 callsubr
          hintmask 11100000
          -64 callgsubr
        </CharString>
        <CharString name="j">
          -505 -495 45 -45 287 1454 265 hstemhm
          -160 235 94 246 hintmask 10111000
          169 -245 rmoveto
          -192 -59 -13 -37 -25 -18 13 10 -6 9 callsubr
          35 21 16 47 28 vvcurveto
          hintmask 01111000
          60 -37 59 -78 -71 -49 -59 -66 -78 47 -84 161 84 283 10 440 vhcurveto
          1040 vlineto
          -18 29 -142 -37 -209 -7 callgsubr
          vlineto
          -13 455 -31 callsubr
        </CharString>
        <CharString name="k">
          14 8 callgsubr
          464 -20 hstem
          164 245 vstem
          409 1419 -61 callsubr
          2 -41 121 2 rlineto
          -1299 -97 callsubr
          463 901 rmoveto
          113 -20 callgsubr
          -299 -41 vlineto
          112 -11 -389 -405 rlineto
          -25 vlineto
          305 -471 -81 -47 callgsubr
          458 41 vlineto
          -104 10 -402 596 rlineto
          endchar
        </CharString>
        <CharString name="l">
          -494 21 -21 1448 -20 hstem
          164 245 vstem
          409 -45 callsubr
          -1297 -97 callsubr
          endchar
        </CharString>
        <CharString name="less">
          3 callgsubr
          16 611 rmoveto
          912 -437 rlineto
          123 vlineto
          -747 346 rlineto
          2 vlineto
          747 347 rlineto
          122 vlineto
          -912 -445 rlineto
          endchar
        </CharString>
        <CharString name="logicalnot">
          80 371 -21 242 110 hstem
          919 110 vstem
          919 350 rmoveto
          110 352 -912 -110 802 hlineto
          endchar
        </CharString>
        <CharString name="m">
          634 -6 callgsubr
          7 callgsubr
          311 246 321 246 vstem
          421 995 rmoveto
          -14 -65 callsubr
          596 vlineto
          178 109 119 77 35 90 -30 callgsubr
          451 41 vlineto
          -103 10 rlineto
          616 vlineto
          189 119 88 75 35 92 -30 callgsubr
          451 41 vlineto
          -103 10 rlineto
          645 vlineto
          293 -170 45 -102 -129 -100 -71 -116 -83 vhcurveto
          -2 hlineto
          158 -47 -123 29 -81 hhcurveto
          -137 8 callsubr
          hvcurveto
          -4 hlineto
          endchar
        </CharString>
        <CharString name="macron">
          -107 1341 86 hstem
          1341 vmoveto
          6 callgsubr
        </CharString>
        <CharString name="minus">
          80 -52 callsubr
          912 110 vlineto
          endchar
        </CharString>
        <CharString name="mu">
          61 -430 -21 450 90 -68 -21 1004 -20 hstemhm
          147 176 -176 246 342 245 hintmask 11011010
          460 -451 rmoveto
          40 vlineto
          -88 -49 44 169 hvcurveto
          213 vlineto
          -13 37 37 -3 30 hhcurveto
          158 94 92 82 56 hvcurveto
          4 hlineto
          -4 -144 rlineto
          hintmask 10111010
          18 -29 rlineto
          227 1004 -245 -708 hlineto
          hintmask 11010110
          -105 -24 -88 -102 -93 hhcurveto
          -35 -102 6 207 hvcurveto
          702 -246 -1123 vlineto
          -235 63 -97 147 vhcurveto
          endchar
        </CharString>
        <CharString name="multiply">
          80 233 -21 869 -20 hstem
          493 647 rmoveto
          -376 -345 74 -78 378 351 385 -363 75 83 -379 355 379 352 -65 78 -390 -359 -384 360 -73 -79 rlineto
          endchar
        </CharString>
        <CharString name="n">
          98 -6 callgsubr
          hstem
          179 245 342 246 vstem
          424 995 -61 callsubr
          2 -41 121 2 rlineto
          -875 -97 callsubr
          596 vlineto
          178 86 119 119 35 102 -30 callgsubr
          450 41 vlineto
          -102 10 rlineto
          651 vlineto
          293 -178 39 -102 -158 8 callsubr
          vhcurveto
          -4 hlineto
          endchar
        </CharString>
        <CharString name="nbspace">
          -603 endchar
        </CharString>
        <CharString name="nine">
          56 -35 55 -55 420 157 70 795 55 hstemhm
          86 265 -198 275 333 257 hintmask 10111010
          555 -11 callgsubr
          rmoveto
          -350 -119 -271 -192 -242 111 -215 299 120 94 54 79 50 hvcurveto
          -369 -2 -286 -267 -107 -72 46 39 -17 9 callsubr
          hintmask 01110110
          78 6 55 56 78 vvcurveto
          82 -56 54 -74 -103 -42 -80 -71 -81 49 -188 307 351 158 286 555 273 -35 383 -428 vhcurveto
          -8 -850 rmoveto
          hintmask 10111010
          -184 -12 200 207 213 61 175 154 104 91 -102 -447 hvcurveto
          -23 -1 -24 -25 vvcurveto
          -102 -22 -99 -72 -92 hhcurveto
          endchar
        </CharString>
        <CharString name="noBreak">
          -1066 endchar
        </CharString>
        <CharString name="nonmarkingreturn">
          -1066 endchar
        </CharString>
        <CharString name="ntilde">
          98 -6 callgsubr
          0 callsubr
          179 245 342 246 hintmask 11011110
          424 995 -61 callsubr
          2 -41 121 2 rlineto
          -875 -97 callsubr
          596 vlineto
          178 86 119 119 35 102 -30 callgsubr
          450 41 vlineto
          -102 10 rlineto
          651 vlineto
          293 -178 39 -102 -158 8 callsubr
          vhcurveto
          -4 hlineto
          39 495 -88 callgsubr
        </CharString>
        <CharString name="numbersign">
          298 -14 -21 438 134 378 134 413 -20 hstem
          377 -35 rmoveto
          73 438 rlineto
          364 hlineto
          -73 -438 rlineto
          123 hlineto
          73 438 rlineto
          298 hlineto
          18 134 rlineto
          -293 hlineto
          63 378 rlineto
          294 hlineto
          18 134 rlineto
          -289 -14 callgsubr
          -364 -14 callgsubr
          -305 hlineto
          -19 -134 rlineto
          301 hlineto
          -63 -378 rlineto
          -305 hlineto
          -19 -134 rlineto
          301 hlineto
          -73 -438 rlineto
          282 950 rmoveto
          364 hlineto
          -63 -378 rlineto
          -364 hlineto
          endchar
        </CharString>
        <CharString name="o">
          -34 callsubr
          -103 callgsubr
          endchar
        </CharString>
        <CharString name="oacute">
          -34 callsubr
          535 -20 -103 callgsubr
          179 1381 -95 callsubr
        </CharString>
        <CharString name="ocircumflex">
          -34 callsubr
          551 -20 -103 callgsubr
          15 1570 -92 callgsubr
        </CharString>
        <CharString name="odieresis">
          -34 callsubr
          212 265 hstemhm
          80 256 -75 -34 callgsubr
          -101 256 hintmask 11110010
          -106 callgsubr
          hintmask 11101100
          69 1364 -100 callgsubr
        </CharString>
        <CharString name="oe">
          554 -30 45 -45 73 497 51 398 45 hstemhm
          -23 callsubr
          240 326 233 hintmask 01111110
          848 139 rmoveto
          -128 77 101 -33 151 hhcurveto
          -51 callsubr
          hvcurveto
          -89 callgsubr
          27 25 rlineto
          272 -102 197 -284 -163 -90 -86 -80 -50 vhcurveto
          -2 hlineto
          102 -63 -98 64 -142 hhcurveto
          -86 callsubr
          125 104 38 131 78 hvcurveto
          hintmask 10111110
          -311 -124 -99 callsubr
          618 974 rmoveto
          113 36 -113 -81 callsubr
          177 133 hhcurveto
          endchar
        </CharString>
        <CharString name="ograve">
          -34 callsubr
          548 -20 -103 callgsubr
          55 1154 -87 callgsubr
        </CharString>
        <CharString name="one">
          -330 0 50 1412 -20 hstem
          276 246 vstem
          522 -11 callgsubr
          rmoveto
          0 -23 0 -32 vhcurveto
          -439 -121 15 -53 233 56 rlineto
          -1289 -8 callsubr
          -45 553 -78 callgsubr
          endchar
        </CharString>
        <CharString name="onehalf">
          211 0 135 334 173 68 42 725 -20 hstem
          160 185 377 175 128 179 vstem
          739 hmoveto
          -68 callgsubr
          -52 callgsubr
          -394 1334 -62 callsubr
          endchar
        </CharString>
        <CharString name="onequarter">
          131 10 199 -188 -21 161 48 1268 -20 hstemhm
          160 185 522 185 hintmask 01111100
          345 1448 -62 callsubr
          377 210 -15 callgsubr
          -54 -104 -100 vlineto
          103 -10 rlineto
          hintmask 10011100
          3 callsubr
          hintmask 01111100
          -39 callsubr
        </CharString>
        <CharString name="onesuperior">
          -495 731 -21 767 -20 hstem
          206 185 vstem
          391 1448 -67 callsubr
          endchar
        </CharString>
        <CharString name="ordfeminine">
          -247 688 89 279 49 58 299 -54 54 hstemhm
          86 176 -140 183 173 185 hintmask 11100110
          663 747 rmoveto
          392 vlineto
          199 -31 124 -247 -144 -119 -82 -119 -49 34 -49 58 57 34 40 50 48 -32 32 -44 -7 -6 -1 -1 -7 vhcurveto
          3 vlineto
          hintmask 11011010
          32 17 36 42 93 hhcurveto
          119 4 -84 -128 hvcurveto
          -94 vlineto
          2 -24 -22 1 -22 hhcurveto
          -229 -95 -122 -116 -89 56 -90 127 99 64 46 93 47 hvcurveto
          2 hlineto
          19 -118 rlineto
          238 30 hlineto
          -476 144 rmoveto
          48 11 125 154 15 17 -1 -3 19 vhcurveto
          -67 vlineto
          -123 -68 -85 -62 -58 -28 32 74 vhcurveto
          endchar
        </CharString>
        <CharString name="ordmasculine">
          -189 699 55 653 55 hstem
          72 202 326 205 vstem
          274 1107 -19 callgsubr
          -71 callsubr
          endchar
        </CharString>
        <CharString name="oslash">
          6 -34 -21 25 45 974 45 hstem
          80 241 430 241 vstem
          541 -5 callgsubr
          -270 -191 -243 -295 -140 36 -134 77 -98 hvcurveto
          -140 -179 rlineto
          109 hlineto
          92 117 rlineto
          -57 71 94 -35 120 hhcurveto
          -57 callsubr
          126 -33 126 -67 98 hvcurveto
          142 182 rlineto
          -110 hlineto
          -89 -114 rlineto
          70 -73 -97 44 -124 hhcurveto
          -220 -526 rmoveto
          276 69 205 145 97 60 -72 -128 31 vhcurveto
          -387 -494 rlineto
          -10 63 -5 72 78 vvcurveto
          214 -493 rmoveto
          -82 -57 65 108 -35 hvcurveto
          382 485 rlineto
          5 -53 3 -60 -64 vvcurveto
          -277 -66 -204 -150 vhcurveto
          endchar
        </CharString>
        <CharString name="otilde">
          -34 callsubr
          0 callsubr
          -23 callsubr
          256 hintmask 11011110
          -106 callgsubr
          -119 1340 -88 callgsubr
        </CharString>
        <CharString name="p">
          48 -1 callgsubr
          hstemhm
          169 245 361 256 hintmask 10111000
          410 865 rmoveto
          130 vlineto
          -14 -98 callsubr
          -1348 -97 callsubr
          445 vlineto
          hintmask 01111000
          -20 callsubr
          454 -252 68 -94 -109 -82 -33 -136 -80 hvcurveto
          -177 vmoveto
          131 78 135 107 -25 callsubr
          vhcurveto
          endchar
        </CharString>
        <CharString name="paragraph">
          69 0 50 519 55 742 61 hstem
          34 266 319 99 118 99 vstem
          718 -33 callsubr
          -192 hlineto
          -269 -223 -135 -287 -328 221 -108 339 hvcurveto
          25 -514 hlineto
          -80 callsubr
          624 -78 callgsubr
          -11 callsubr
          -35 callgsubr
          45 -253 -1372 -118 vlineto
          -130 569 rmoveto
          -196 -92 95 295 266 122 86 131 15 24 -1 -3 27 hvcurveto
          -738 vlineto
          endchar
        </CharString>
        <CharString name="parenleft">
          -514 -50 callsubr
          64 226 vstem
          290 481 rmoveto
          306 37 368 192 270 vhcurveto
          -39 37 rlineto
          -221 -225 -195 -375 -381 vvcurveto
          -380 195 -371 221 -225 vhcurveto
          39 36 rlineto
          -192 271 -37 364 305 vvcurveto
          endchar
        </CharString>
        <CharString name="parenright">
          -514 -50 callsubr
          262 226 vstem
          262 481 rmoveto
          -305 -37 -364 -192 -271 vhcurveto
          39 -36 rlineto
          221 225 195 371 380 vvcurveto
          381 -195 375 -221 225 vhcurveto
          -39 -37 rlineto
          192 -270 37 -368 -306 vvcurveto
          endchar
        </CharString>
        <CharString name="percent">
          546 -35 55 1 -21 673 55 -29 55 653 55 hstemhm
          26 202 326 205 97 203 325 205 hintmask 1010111110000000
          1059 372 rmoveto
          102 16 199 150 153 6 -192 -156 -121 -16 -184 -147 -158 -4 203 149 vhcurveto
          -203 -33 rmoveto
          -196 135 -178 238 202 158 184 209 177 -115 193 -243 -241 -134 -198 -191 vhcurveto
          -628 768 -19 callgsubr
          vhcurveto
          hintmask 0101111110000000
          -71 callsubr
          415 -1074 rmoveto
          -66 callgsubr
          endchar
        </CharString>
        <CharString name="period">
          -602 -35 275 hstem
          94 276 vstem
          94 100 rmoveto
          -87 callsubr
          endchar
        </CharString>
        <CharString name="periodcentered">
          -582 565 275 hstem
          104 276 vstem
          104 700 rmoveto
          -87 callsubr
          endchar
        </CharString>
        <CharString name="plus">
          80 215 -21 398 110 398 -22 callgsubr
          -398 110 398 401 110 -401 398 -110 -398 vlineto
          endchar
        </CharString>
        <CharString name="plusminus">
          80 0 110 482 110 328 -22 callgsubr
          -328 110 328 401 110 -401 328 -110 -328 vlineto
          -401 -592 -24 callgsubr
        </CharString>
        <CharString name="q">
          34 -454 -21 445 81 923 60 -30 -20 hstemhm
          84 256 367 246 hintmask 11011100
          953 -424 rmoveto
          1428 -41 vlineto
          -205 -79 rlineto
          hintmask 11101100
          84 -59 -93 25 -63 hhcurveto
          -274 -134 -262 -291 -456 252 -55 95 108 84 36 136 80 hvcurveto
          4 -566 hlineto
          -22 callsubr
          450 41 vlineto
          -538 485 rmoveto
          -80 -97 74 346 188 7 315 198 86 68 -88 -95 8 hvcurveto
          -473 vlineto
          -131 -90 -136 -100 vhcurveto
          endchar
        </CharString>
        <CharString name="question">
          -219 -35 246 810 249 134 58 hstemhm
          18 261 15 247 -184 64 163 229 hintmask 11110110
          584 1136 rmoveto
          -270 -227 -181 -187 vvcurveto
          -31 6 -30 14 -31 vhcurveto
          0 52 0 2 vhcurveto
          -7 21 -3 20 20 222 392 146 288 vvcurveto
          178 -127 161 -256 -303 -109 -179 -125 -72 48 -65 83 80 50 55 72 78 -42 44 -86 vhcurveto
          -5 -4 0 -5 hhcurveto
          6 vlineto
          47 12 91 81 122 hhcurveto
          138 84 -86 -182 hvcurveto
          hintmask 11111010
          -290 -1051 rmoveto
          -72 51 -48 72 75 49 48 72 76 -49 50 -75 -72 -51 -50 -76 vhcurveto
          endchar
        </CharString>
        <CharString name="questiondown">
          -219 -135 58 0 134 0 249 810 246 hstemhm
          34 229 163 64 78 261 hintmask 01011110
          263 191 rmoveto
          -182 84 -86 138 122 91 81 47 12 vhcurveto
          6 vlineto
          -5 -4 0 -5 hhcurveto
          -86 -42 44 78 hvcurveto
          hintmask 10111110
          72 50 55 80 83 48 -65 -72 -125 -109 -179 -303 -256 -127 161 178 vhcurveto
          288 392 146 222 vvcurveto
          20 -3 20 -7 21 vhcurveto
          2 52 0 0 hvcurveto
          14 -31 6 -30 -31 -187 -227 -181 -270 vvcurveto
          290 1051 rmoveto
          72 -51 48 -72 -75 -49 -48 -72 -76 49 -50 75 72 51 50 76 vhcurveto
          endchar
        </CharString>
        <CharString name="quotedbl">
          -472 967 -21 516 -20 hstem
          90 168 78 168 vstem
          397 946 rmoveto
          -25 callgsubr
          -82 -4 -100 -33 -70 30 -131 31 -182 vhcurveto
          -246 hmoveto
          -25 callgsubr
          -84 -2 -100 -33 -70 31 -131 30 -182 vhcurveto
          endchar
        </CharString>
        <CharString name="quotedblbase">
          -296 -40 callsubr
          hstemhm
          94 254 76 254 hintmask 11011000
          137 -289 -75 callgsubr
          vhcurveto
          hintmask 10111000
          -16 callgsubr
          hvcurveto
          -44 callsubr
          345 -51 -53 callgsubr
          hintmask 11011000
          -58 callgsubr
          vhcurveto
          hintmask 10111000
          -16 callgsubr
          hvcurveto
          -44 callsubr
          endchar
        </CharString>
        <CharString name="quotedblleft">
          -314 -10 callsubr
          76 254 vstem
          625 1447 -82 callgsubr
          -345 51 -82 callgsubr
          endchar
        </CharString>
        <CharString name="quotedblright">
          -319 939 -23 callgsubr
          hstem
          92 254 76 -62 callgsubr
          345 -51 -83 callsubr
          endchar
        </CharString>
        <CharString name="quoteleft">
          -645 -10 callsubr
          vstem
          295 1447 -82 callgsubr
          endchar
        </CharString>
        <CharString name="quoteright">
          -649 939 -23 callgsubr
          hstem
          92 -62 callgsubr
          endchar
        </CharString>
        <CharString name="quotesinglbase">
          -77 callsubr
        </CharString>
        <CharString name="quotesingle">
          -706 967 -21 516 -20 hstem
          86 188 vstem
          156 946 rmoveto
          0 47 0 2 vhcurveto
          30 182 39 131 70 vvcurveto
          33 0 100 -92 -92 -4 -100 -33 -70 39 -131 31 -182 vhcurveto
          endchar
        </CharString>
        <CharString name="r">
          -198 21 -21 747 287 7 callgsubr
          173 255 vstem
          620 950 rmoveto
          -17 -20 -5 -39 -19 vvcurveto
          -67 48 -58 81 78 48 62 73 91 -59 61 -104 -117 -103 -119 -92 -45 vhcurveto
          -4 172 hlineto
          -14 -65 callsubr
          498 vlineto
          266 113 123 82 18 vhcurveto
          endchar
        </CharString>
        <CharString name="registered">
          -50 558 49 140 281 358 51 hstem
          69 70 199 115 138 114 174 69 vstem
          69 997 rmoveto
          -242 186 -197 253 253 187 197 242 243 -187 197 -253 -253 -186 -197 -243 vhcurveto
          70 hmoveto
          209 131 180 238 239 132 -180 -209 -209 -132 -181 -239 -238 -131 181 209 vhcurveto
          401 15 rmoveto
          92 13 73 36 93 vvcurveto
          98 -97 36 -109 vhcurveto
          -207 -30 hlineto
          46 -4 rlineto
          -473 vlineto
          -46 -5 rlineto
          -29 210 29 vlineto
          -49 5 rlineto
          220 24 vlineto
          37 31 -62 -67 27 hvcurveto
          -112 45 28 -13 63 hhcurveto
          64 30 hlineto
          -20 -10 7 34 -18 hvcurveto
          -25 47 -6 17 -24 48 -20 40 -50 34 -59 6 rrcurveto
          -87 244 rmoveto
          3 15 12 0 9 hhcurveto
          56 46 -20 -84 -76 -30 -49 -93 hvcurveto
          -15 hlineto
          endchar
        </CharString>
        <CharString name="ring">
          -524 1176 51 308 51 hstem
          36 149 171 150 vstem
          36 1379 -65 callgsubr
        </CharString>
        <CharString name="ring.case">
          -410 1567 56 248 56 hstem
          80 139 217 140 vstem
          80 1745 -66 callsubr
        </CharString>
        <CharString name="s">
          -154 -30 47 -47 385 332 347 -45 45 hstemhm
          90 157 -157 245 216 232 -142 201 hintmask 10100110
          418 17 rmoveto
          -116 -74 54 53 -23 hvcurveto
          2 vlineto
          -1 5 7 0 5 hhcurveto
          54 59 39 75 hvcurveto
          hintmask 01011001
          63 -2 -42 53 -71 hhcurveto
          -82 -48 -70 -75 -175 195 -65 137 291 129 122 172 205 -211 94 -155 80 hvcurveto
          -183 94 -46 28 76 vvcurveto
          65 58 83 152 103 67 -38 -42 29 vhcurveto
          -2 vlineto
          -3 -3 0 -3 hhcurveto
          hintmask 10101010
          -48 -48 -33 -77 -61 39 -49 77 74 42 61 58 151 -164 77 -162 -213 -152 -116 -182 -203 203 -80 144 -78 hvcurveto
          hintmask 10101001
          151 -82 51 -41 -88 vvcurveto
          -84 -71 -63 -152 vhcurveto
          endchar
        </CharString>
        <CharString name="section">
          -76 -394 54 -54 420 1022 414 -54 54 hstemhm
          84 98 -68 144 -144 270 202 276 -123 123 -47 98 hintmask 1001010001000000
          883 -51 rmoveto
          96 -26 83 -51 69 vhcurveto
          89 94 18 127 73 vvcurveto
          227 -106 92 -301 127 vhcurveto
          -197 83 -51 67 116 vvcurveto
          132 91 73 153 107 84 -43 -44 30 vhcurveto
          -4 vlineto
          hintmask 1010001100000000
          -80 -57 -48 -87 -77 53 -57 82 93 48 70 78 90 -69 176 -278 -308 -93 -210 -143 -96 23 -82 49 -66 hvcurveto
          hintmask 1010100010000000
          -83 -89 -19 -126 -73 vvcurveto
          -227 96 -92 301 -127 vhcurveto
          197 -83 61 -77 -116 vvcurveto
          -132 -112 -63 -153 -107 -90 49 44 -30 9 callsubr
          hintmask 0110001001000000
          80 57 48 87 77 -53 57 -82 -93 -48 -76 -78 -92 76 -174 286 318 95 200 143 hvcurveto
          -503 773 rmoveto
          331 -139 104 -110 -111 vvcurveto
          -35 -8 -54 -30 -41 vhcurveto
          -44 46 -56 38 -70 30 rrcurveto
          hintmask 1010100100000000
          -331 139 -94 110 111 vvcurveto
          35 14 64 19 25 vhcurveto
          42 -43 54 -36 69 -29 rrcurveto
          endchar
        </CharString>
        <CharString name="semicolon">
          -548 -40 callsubr
          776 275 hstemhm
          117 276 hintmask 11011000
          117 894 rmoveto
          -87 callsubr
          53 -1183 -61 callgsubr
          hintmask 10111000
          -48 callsubr
        </CharString>
        <CharString name="seven">
          -201 -29 -21 1291 186 hstem
          258 231 vstem
          749 1242 rmoveto
          -60 -70 -118 -204 -77 -169 rrcurveto
          -133 -293 -103 -214 -185 vvcurveto
          -49 8 -108 102 97 24 92 67 341 53 426 309 408 vhcurveto
          143 -789 vlineto
          -10 -370 rlineto
          55 hlineto
          14 161 48 18 217 3 363 5 rcurveline
          endchar
        </CharString>
        <CharString name="six">
          57 -35 55 795 70 158 419 -55 55 hstemhm
          103 257 343 274 -207 265 hintmask 11011100
          361 755 rmoveto
          9 -1 11 11 74 5 101 69 vvcurveto
          226 75 151 210 107 62 -46 -39 17 vhcurveto
          -4 vlineto
          -78 -6 -55 -56 -78 vvcurveto
          hintmask 11101100
          -82 59 -53 74 102 39 78 72 81 -48 188 -307 -341 -178 -286 -555 -273 35 -383 428 vhcurveto
          hintmask 11101010
          350 119 271 192 242 -111 215 -299 -119 -93 -52 -78 -50 hvcurveto
          211 60 rmoveto
          184 12 -200 -207 -213 -61 -175 -154 -105 -90 102 447 23 0 24 1 25 hvcurveto
          102 22 99 72 92 hhcurveto
          endchar
        </CharString>
        <CharString name="slash">
          -216 -50 callsubr
          66 -495 rmoveto
          842 1957 -2 callsubr
          -841 -1957 rlineto
          endchar
        </CharString>
        <CharString name="space">
          -603 endchar
        </CharString>
        <CharString name="sterling">
          51 -30 137 72 191 342 47 361 328 -43 43 hstemhm
          218 246 280 229 -113 223 -49 49 hintmask 1110111010000000
          809 719 rmoveto
          40 -345 198 vlineto
          337 93 111 119 57 66 -14 -43 39 vhcurveto
          -4 vlineto
          -69 -16 -25 -49 -53 vvcurveto
          hintmask 1111010100000000
          -68 42 -38 74 vhcurveto
          hintmask 1111011010000000
          73 40 57 63 111 -108 97 -207 -275 -165 -181 -396 hvcurveto
          -112 -187 -40 vlineto
          187 -13 rlineto
          -552 vlineto
          -49 -20 -63 -47 -54 -80 47 -37 rcurveline
          49 34 69 65 75 hhcurveto
          64 106 -27 -39 113 hvcurveto
          -36 104 114 -12 43 hhcurveto
          hintmask 1111010100000000
          185 77 140 103 82 -48 75 -79 -57 -39 -41 -56 -55 35 -39 53 40 30 20 26 8 hvcurveto
          3 2 rlineto
          hintmask 1111011010000000
          3 -10 2 -6 -17 vvcurveto
          -41 -26 -46 -76 -150 -193 90 15 -125 vhcurveto
          494 vlineto
          endchar
        </CharString>
        <CharString name="t">
          -313 -30 98 888 48 267 -20 hstem
          175 246 vstem
          175 1225 rmoveto
          -221 -170 -43 vlineto
          170 -9 rlineto
          -647 vlineto
          -292 144 -43 139 184 88 161 64 39 vhcurveto
          -43 26 rlineto
          -65 -39 -57 -88 -88 hhcurveto
          -25 -96 4 176 hvcurveto
          704 vlineto
          219 9 rlineto
          43 -219 238 vlineto
          -19 -64 callsubr
          rlineto
          endchar
        </CharString>
        <CharString name="thorn">
          26 -1 callgsubr
          414 -20 hstemhm
          147 245 361 256 hintmask 10111100
          392 -45 callsubr
          -1772 -97 callsubr
          445 vlineto
          hintmask 01111100
          -20 callsubr
          444 -252 78 -94 -109 -83 -40 -129 -75 hvcurveto
          -4 hlineto
          185 89 rmoveto
          -25 callsubr
          hvcurveto
          624 vlineto
          128 84 128 101 vhcurveto
          endchar
        </CharString>
        <CharString name="three">
          33 -35 57 -57 421 364 55 193 464 -60 60 hstemhm
          91 270 -270 295 287 254 -187 269 hintmask 1011001010000000
          363 750 rmoveto
          68 hlineto
          301 8 -254 -144 -213 -110 -117 -166 -168 -43 61 19 -16 hvcurveto
          4 vlineto
          86 63 45 92 hvcurveto
          hintmask 0111010010000000
          82 -57 61 -88 -95 -55 -77 -78 -150 119 -116 295 354 150 197 192 226 -113 174 -332 33 vhcurveto
          2 vlineto
          hintmask 1011010100000000
          252 29 111 121 166 vvcurveto
          229 -168 128 -258 -332 -79 -235 -83 -85 48 -61 89 83 51 55 77 87 -62 58 -92 -13 9 callsubr
          hintmask 1010110100000000
          45 16 86 91 130 hhcurveto
          164 70 -123 -174 -156 -58 -144 -188 hvcurveto
          -64 hlineto
          endchar
        </CharString>
        <CharString name="threequarters">
          207 0 199 -48 48 498 263 -227 352 31 73 0 273 hstemhm
          57 168 143 156 425 185 hintmask 1001011110000000
          322 -63 callgsubr
          hvcurveto
          hintmask 1001101110000000
          -92 -20 -75 -117 vhcurveto
          -29 -31 30 hlineto
          -38 callsubr
          hintmask 1010011110000000
          -42 callsubr
          -2 -1102 rmoveto
          -66 callgsubr
          407 200 -15 callgsubr
          hintmask 0101101110000000
          -54 -104 -100 vlineto
          103 -10 rlineto
          hintmask 1001101110000000
          3 callsubr
          hintmask 0101101110000000
          -39 callsubr
        </CharString>
        <CharString name="threesuperior">
          -377 697 263 -263 419 -31 377 -273 273 hstemhm
          101 168 143 156 -156 192 hintmask 01011100
          366 -63 callgsubr
          -92 -20 -75 -117 hvcurveto
          -29 hlineto
          hintmask 10101010
          -31 30 vlineto
          -38 callsubr
          -42 callsubr
          endchar
        </CharString>
        <CharString name="tilde">
          -259 1264 -49 callsubr
          hintmask 01100000
          288 1355 -69 callsubr
        </CharString>
        <CharString name="tilde.case">
          -219 1643 -49 callsubr
          hintmask 01100000
          288 1734 -69 callsubr
        </CharString>
        <CharString name="two">
          5 0 185 775 290 152 60 hstem
          79 295 299 273 vstem
          93 hmoveto
          871 hlineto
          10 371 rlineto
          -55 hlineto
          -14 -161 -66 -19 -217 -3 -403 -5 rcurveline
          100 86 115 119 169 161 rrcurveto
          258 246 85 138 186 vvcurveto
          211 -172 132 -255 -338 -102 -221 -131 -80 53 -70 97 88 57 62 82 86 -58 60 -87 -8 -8 0 -1 -8 9 callsubr
          53 16 83 96 142 hhcurveto
          134 93 -86 -201 -134 -11 -172 -161 -223 hvcurveto
          -102 -141 -167 -179 -139 -123 rrcurveto
          endchar
        </CharString>
        <CharString name="twosuperior">
          -350 710 135 334 173 -173 283 hstemhm
          103 175 128 179 hintmask 10111000
          120 710 rmoveto
          -68 callgsubr
          vhcurveto
          hintmask 11011000
          -52 callgsubr
          endchar
        </CharString>
        <CharString name="u">
          -16 callsubr
          1024 -104 callsubr
          endchar
        </CharString>
        <CharString name="uacute">
          -16 callsubr
          1569 -104 callsubr
          hintmask 01111000
          -3 1242 -95 callsubr
        </CharString>
        <CharString name="ucircumflex">
          -16 callsubr
          1585 -104 callsubr
          hintmask 01111000
          -167 1431 -92 callgsubr
        </CharString>
        <CharString name="udieresis">
          -16 callsubr
          -6 callsubr
          hstemhm
          158 246 -150 -34 callgsubr
          -94 245 hintmask 01110010
          -89 callsubr
          hintmask 10110010
          -99 callgsubr
          hintmask 01101100
          -143 1225 -100 callgsubr
        </CharString>
        <CharString name="ugrave">
          -16 callsubr
          1582 -104 callsubr
          hintmask 01111000
          -147 1015 -87 callgsubr
        </CharString>
        <CharString name="underscore">
          25 -197 86 hstem
          66 -197 rmoveto
          6 callgsubr
        </CharString>
        <CharString name="uni00AD">
          -32 callgsubr
        </CharString>
        <CharString name="v">
          -103 11 -21 1014 -20 hstem
          809 952 rmoveto
          -216 -630 -21 callsubr
          -236 630 -43 callsubr
          401 -962 rlineto
          46 hlineto
          335 962 104 -20 callgsubr
          -274 -41 vlineto
          endchar
        </CharString>
        <CharString name="w">
          410 11 -21 1014 -20 hstem
          1325 952 rmoveto
          -215 -633 -21 callsubr
          -212 633 109 -20 callgsubr
          -447 -41 vlineto
          90 -11 362 -962 rlineto
          45 hlineto
          329 962 104 -20 callgsubr
          -276 -41 vlineto
          -451 -80 rmoveto
          -197 -555 -21 callsubr
          -205 624 100 -20 callgsubr
          -465 -41 vlineto
          98 -11 371 -962 rlineto
          46 hlineto
          299 866 rlineto
          endchar
        </CharString>
        <CharString name="x">
          -32 8 callgsubr
          hstem
          939 51 rmoveto
          -567 901 108 -20 callgsubr
          -477 -41 vlineto
          98 -11 564 -901 -109 -47 callgsubr
          481 41 vlineto
          -455 491 rmoveto
          268 420 105 -20 callgsubr
          -281 -41 vlineto
          111 -11 -250 -393 rlineto
          -38 -4 rmoveto
          -330 -504 -105 -47 callgsubr
          281 41 vlineto
          -111 10 314 477 rlineto
          endchar
        </CharString>
        <CharString name="y">
          -8 callgsubr
          hstemhm
          80 242 hintmask 10110000
          -41 callgsubr
          30 21 15 47 22 vvcurveto
          hintmask 01110000
          -92 callsubr
          endchar
        </CharString>
        <CharString name="yacute">
          -101 -495 68 1431 -20 585 -20 hstem
          80 242 vstem
          -41 callgsubr
          -79 callgsubr
          211 1468 -95 callsubr
        </CharString>
        <CharString name="ydieresis">
          -8 callgsubr
          262 265 hstemhm
          80 242 -45 -34 callgsubr
          hintmask 10110110
          -41 callgsubr
          hintmask 01111010
          -79 callgsubr
          91 1451 rmoveto
          -102 callsubr
          hintmask 10110110
          -343 hmoveto
          -102 callsubr
          endchar
        </CharString>
        <CharString name="yen">
          140 0 50 330 108 142 108 639 50 hstem
          522 256 vstem
          244 738 rmoveto
          -108 278 -142 -278 -108 278 -325 vlineto
          -80 callsubr
          564 -78 callgsubr
          325 278 108 -278 142 278 108 -262 vlineto
          296 634 -76 callsubr
          135 -10 366 -634 rlineto
          endchar
        </CharString>
        <CharString name="z">
          -105 0 47 909 48 hstem
          106 41 678 41 vstem
          825 334 rmoveto
          -123 -29 -174 -182 6 vhcurveto
          -285 9 563 923 -19 29 rlineto
          -767 -334 41 hlineto
          123 35 174 174 -6 vhcurveto
          243 -9 -542 -923 18 -29 rlineto
          791 334 hlineto
          endchar
        </CharString>
        <CharString name="zero">
          213 -43 callgsubr
          hstem
          97 272 541 272 vstem
          369 728 rmoveto
          508 135 171 139 162 105 -187 -490 -454 -97 -256 -176 -182 -86 292 416 vhcurveto
          -272 -35 rmoveto
          -440 170 -288 376 404 135 394 386 430 -188 287 -357 -364 -176 -359 -410 vhcurveto
          endchar
        </CharString>
      <CharString index="0">
        364 731 -59 callgsubr
        -94 callgsubr
        vhcurveto
        -103 callsubr
        return
      </CharString>
      <CharString index="1">
        541 -5 callgsubr
        -86 callsubr
        -57 callsubr
        266 -146 266 -305 hvcurveto
        -6 -1019 -99 callsubr
        return
      </CharString>
      <CharString index="2">
        -20 -58 callsubr
        hintmask 1011111010000000
        -102 callgsubr
        hintmask 0111110110000000
        28 9 callgsubr
        318 -28 callgsubr
        539 vlineto
        274 -47 170 -340 -180 -178 -74 callsubr
        54 69 82 -45 42 -67 -10 -10 -1 -2 -11 9 callsubr
        43 25 59 72 129 hhcurveto
        164 13 -59 callsubr
        3 -33 -31 1 -29 hhcurveto
        hintmask 1011111010000000
        -93 callgsubr
        return
      </CharString>
      <CharString index="3">
        hstem
        202 256 707 64 vstem
        202 479 rmoveto
        -248 42 -266 530 371 84 270 221 vhcurveto
        916 vlineto
        153 -48 callgsubr
        -370 -68 callsubr
        -894 vlineto
        -222 -76 -222 -283 -329 -19 244 160 vhcurveto
        934 vlineto
        155 -48 callgsubr
        -564 -68 callsubr
        return
      </CharString>
      <CharString index="4">
        hstem
        -23 callsubr
        256 vstem
        -106 callgsubr
        return
      </CharString>
      <CharString index="5">
        314 238 rmoveto
        68 15 189 217 20 -73 callgsubr
        -93 -123 -86 -80 -38 78 101 vhcurveto
        299 -80 rmoveto
        return
      </CharString>
      <CharString index="6">
        -20 hstem
        854 55 rmoveto
        -135 -32 callsubr
        535 45 vlineto
        -132 10 -489 1413 rlineto
        -45 hlineto
        -473 -1413 -121 -32 callsubr
        313 45 vlineto
        -135 10 116 359 rlineto
        448 hlineto
        -226 682 rmoveto
        4 hlineto
        200 -614 -408 -8 rlineto
        return
      </CharString>
      <CharString index="7">
        rmoveto
        -102 callsubr
        -343 hmoveto
        -102 callsubr
        endchar
      </CharString>
      <CharString index="8">
        -179 -98 -127 -89 -34 -111 3 207 vhcurveto
        722 vlineto
        -19 -98 callsubr
        -623 vlineto
        -293 191 -38 102 147 82 102 82 56 vhcurveto
        4 hlineto
        return
      </CharString>
      <CharString index="9">
        -75 47 -60 75 75 48 60 75 74 -48 60 -75 -75 -47 -60 -74 vhcurveto
        return
      </CharString>
      <CharString index="10">
        268 vstem
        -107 callgsubr
        return
      </CharString>
      <CharString index="11">
        -99 -15 84 -121 hhcurveto
        -118 -74 -104 -95 -26 hvcurveto
        36 -16 rlineto
        67 54 60 13 48 hhcurveto
        endchar
      </CharString>
      <CharString index="12">
        95 27 -91 121 hhcurveto
        91 87 70 151 28 hvcurveto
        -39 13 rlineto
        -82 -55 -62 -10 -38 hhcurveto
        return
      </CharString>
      <CharString index="13">
        214 139 -214 -460 -424 -131 -289 -228 -233 -121 325 386 return
      </CharString>
      <CharString index="14">
        -316 -130 -77 callgsubr
        135 88 64 124 64 hvcurveto
        return
      </CharString>
      <CharString index="15">
        rmoveto
        -266 -376 76 -41 178 211 rlineto
        4 hlineto
        166 -212 81 46 -234 372 rlineto
        endchar
      </CharString>
      <CharString index="16">
        -237 hhcurveto
        -74 -103 -60 callsubr
        60 -72 callgsubr
        return
      </CharString>
      <CharString index="17">
        637 -33 callsubr
        -564 -45 hlineto
        -101 callsubr
        564 -78 callgsubr
        -11 callsubr
        -35 callgsubr
        return
      </CharString>
      <CharString index="18">
        -39 24 rlineto
        -151 -90 -109 -25 -82 hhcurveto
        -149 -99 119 317 hvcurveto
        61 532 vlineto
        return
      </CharString>
      <CharString index="19">
        rmoveto
        hintmask 11101110
        -95 callgsubr
        hintmask 11011110
        -96 callgsubr
      </CharString>
      <CharString index="20">
        -75 callsubr
        -64 callgsubr
      </CharString>
      <CharString index="21">
        548 -5 callgsubr
        -323 -144 -299 -239 -318 129 -208 330 125 131 49 174 96 hvcurveto
        -39 23 rlineto
        -163 -95 -105 -14 -70 hhcurveto
        -133 -113 106 355 272 66 212 182 -67 callgsubr
        141 -133 123 -189 hvcurveto
        return
      </CharString>
      <CharString index="22">
        -17 callgsubr
        hintmask 11011000
        -107 callgsubr
        return
      </CharString>
      <CharString index="23">
        -20 hstem
        179 245 vstem
        424 995 -61 callsubr
        2 -41 121 2 rlineto
        -875 -97 callsubr
        return
      </CharString>
      <CharString index="24">
        -61 -30 89 -38 -21 495 45 84 247 116 47 return
      </CharString>
      <CharString index="25">
        rmoveto
        -168 -92 -43 -144 -113 vvcurveto
        -90 40 -90 92 90 32 82 55 81 -50 57 -64 -19 -15 -2 -16 -23 vhcurveto
        -4 hlineto
        57 29 103 118 61 vhcurveto
        return
      </CharString>
      <CharString index="26">
        -50 callgsubr
        -84 callsubr
      </CharString>
      <CharString index="27">
        -18 -98 callsubr
        return
      </CharString>
      <CharString index="28">
        30 21 15 47 22 vvcurveto
        -92 callsubr
        return
      </CharString>
      <CharString index="29">
        45 -55 callgsubr
        rlineto
        return
      </CharString>
      <CharString index="30">
        -164 -159 -123 78 -124 174 return
      </CharString>
      <CharString index="31">
        -78 57 -58 83 90 50 68 75 158 -189 130 -205 -463 -200 -413 -361 -362 125 -361 508 242 149 131 221 90 vhcurveto
        -37 callgsubr
        -275 -115 337 342 hvcurveto
        return
      </CharString>
      <CharString index="32">
        -53 callgsubr
        -58 callgsubr
        return
      </CharString>
      <CharString index="33">
        537 -55 vlineto
        -69 callgsubr
        return
      </CharString>
      <CharString index="34">
        21 -2 -3 24 vhcurveto
        -138 vlineto
        -170 return
      </CharString>
      <CharString index="35">
        0 17 hhcurveto
        135 60 -57 -186 hvcurveto
        55 return
      </CharString>
      <CharString index="36">
        144 0 -70 callsubr
        return
      </CharString>
      <CharString index="37">
        1362 rmoveto
        6 77 74 4 62 hhcurveto
        237 return
      </CharString>
      <CharString index="38">
        -187 -60 -52 -135 -27 -52 0 3 -30 vhcurveto
        return
      </CharString>
      <CharString index="39">
        480 hlineto
        5 231 rlineto
        -23 hlineto
        -7 -82 -39 -10 -112 -2 -218 -4 rcurveline
        2 vlineto
        235 135 144 137 149 vvcurveto
        99 -70 97 -175 -163 -74 -103 -80 -59 31 -41 57 53 34 37 51 return
      </CharString>
      <CharString index="40">
        107 51 -69 -26 16 hvcurveto
        -5 vlineto
        1 -9 -8 1 -8 hhcurveto
        -70 -46 -57 -65 -70 51 -53 74 82 45 61 68 return
      </CharString>
      <CharString index="41">
        779 -11 callgsubr
        rlineto
        -63 hlineto
        -779 -1462 rlineto
        return
      </CharString>
      <CharString index="42">
        rmoveto
        -120 93 -83 140 139 98 83 120 119 -98 88 -139 -130 -103 -88 -119 vhcurveto
        149 hmoveto
        82 21 74 63 65 22 -74 -82 -81 -22 -71 -65 -63 -21 71 81 vhcurveto
        endchar
      </CharString>
      <CharString index="43">
        -51 -38 -41 -52 -30 11 -30 19 -20 hvcurveto
        endchar
      </CharString>
      <CharString index="44">
        1104 rmoveto
        135 25 67 67 89 vvcurveto
        119 -96 58 -144 -154 -73 -100 -75 -61 33 -37 54 51 30 34 46 54 -35 36 -64 -8 vhcurveto
        2 vlineto
        32 10 47 40 73 hhcurveto
        65 47 -38 -104 return
      </CharString>
      <CharString index="45">
        254 vstem
        135 918 -83 callsubr
        return
      </CharString>
      <CharString index="46">
        rmoveto
        184 92 46 -3 callgsubr
        -43 90 -101 -98 -35 -82 -55 -81 55 -57 70 vhcurveto
        return
      </CharString>
      <CharString index="47">
        55 239 -20 36 -20 372 55 return
      </CharString>
      <CharString index="48">
        rmoveto
        478 170 198 190 return
      </CharString>
      <CharString index="49">
        90 -40 90 -92 -90 -32 -82 -55 -81 50 -57 64 return
      </CharString>
      <CharString index="50">
        rmoveto
        -87 callsubr
        794 vmoveto
        -87 callsubr
        return
      </CharString>
      <CharString index="51">
        hstemhm
        72 242 -203 253 return
      </CharString>
      <CharString index="52">
        -27 callgsubr
        10 return
      </CharString>
      <CharString index="53">
        -103 10 rlineto
        return
      </CharString>
      <CharString index="54">
        rmoveto
        168 92 43 -36 callsubr
        return
      </CharString>
      <CharString index="55">
        51 -27 34 -56 -5 -12 -1 -3 -6 vhcurveto
        2 vlineto
        34 10 44 40 72 hhcurveto
        69 39 -42 -99 -185 -37 -126 -249 -148 hvcurveto
        return
      </CharString>
      <CharString index="56">
        375 -43 callgsubr
        return
      </CharString>
      <CharString index="57">
        rmoveto
        15 38 -242 191 rlineto
        return
      </CharString>
      <CharString index="58">
        rmoveto
        46 10 44 39 48 vvcurveto
        return
      </CharString>
      <CharString index="59">
        -38 callgsubr
        vlineto
        0 return
      </CharString>
      <CharString index="60">
        -10 rlineto
        -41 return
      </CharString>
      <CharString index="61">
        233 -49 callgsubr
        hintmask 10110000
        -88 callsubr
      </CharString>
      <CharString index="62">
        36 29 -27 -44 -79 -97 -89 -139 -24 hvcurveto
        12 -53 rlineto
        140 20 252 77 166 vvcurveto
        84 -53 51 -84 vhcurveto
        endchar
      </CharString>
      <CharString index="63">
        -84 -30 65 497 51 406 45 return
      </CharString>
      <CharString index="64">
        -35 -42 callgsubr
        return
      </CharString>
      <CharString index="65">
        55 1387 55 return
      </CharString>
      <CharString index="66">
        467 -186 rmoveto
        -31 -84 -59 -155 -100 -2 rrcurveto
        4 vlineto
        return
      </CharString>
      <CharString index="67">
        780 1405 rmoveto
        143 84 -74 -24 13 hvcurveto
        -4 vlineto
        1 -5 -6 0 -5 hhcurveto
        -73 -56 -60 -77 hvcurveto
        return
      </CharString>
      <CharString index="68">
        rmoveto
        -47 -61 -15 -24 -39 hvcurveto
        56 171 rlineto
        -68 hlineto
        -59 -210 29 -34 rlineto
        19 27 35 11 31 hhcurveto
        return
      </CharString>
      <CharString index="69">
        10 rlineto
        45 return
      </CharString>
      <CharString index="70">
        -47 22 rlineto
        -161 -71 -138 -140 -202 hhcurveto
        return
      </CharString>
      <CharString index="71">
        vlineto
        8 43 39 2 28 hhcurveto
        377 80 -287 -362 -383 -123 -285 -346 hvcurveto
        return
      </CharString>
      <CharString index="72">
        vlineto
        -37 callsubr
        return
      </CharString>
      <CharString index="73">
        233 110 233 return
      </CharString>
      <CharString index="74">
        hintmask 110010001001011101000000
        return
      </CharString>
      <CharString index="75">
        -320 -52 callsubr
        512 2 callgsubr
      </CharString>
      <CharString index="76">
        -2 14 15 -1 16 hhcurveto
        53 52 15 60 59 -50 15 -54 -16 -15 -1 -2 -15 hvcurveto
        return
      </CharString>
      <CharString index="77">
        -6 -207 vhcurveto
        -680 -29 callsubr
        return
      </CharString>
      <CharString index="78">
        hstemhm
        -55 callsubr
        304 55 return
      </CharString>
      <CharString index="79">
        41 hlineto
        -54 callgsubr
        return
      </CharString>
      <CharString index="80">
        vlineto
        -154 return
      </CharString>
      <CharString index="81">
        41 2 22 hhcurveto
        164 129 -76 -266 -238 -88 -162 -240 return
      </CharString>
      <CharString index="82">
        0 43 0 2 vhcurveto
        31 182 31 131 70 vvcurveto
        33 0 100 -82 return
      </CharString>
      <CharString index="83">
        -30 callsubr
        endchar
      </CharString>
      <CharString index="84">
        -21 254 275 return
      </CharString>
      <CharString index="85">
        -20 hstem
        518 110 vstem
        -41 callsubr
        401 return
      </CharString>
      <CharString index="86">
        147 -6 rlineto
        -904 -29 callsubr
        491 41 vlineto
        return
      </CharString>
      <CharString index="87">
        11 rlineto
        41 return
      </CharString>
      <CharString index="88">
        rmoveto
        102 17 198 149 154 6 -192 -155 return
      </CharString>
      <CharString index="89">
        -104 50 -64 19 -272 vhcurveto
        -100 1 -97 31 -100 13 rrcurveto
        return
      </CharString>
      <CharString index="90">
        hstemhm
        -24 callsubr
        return
      </CharString>
      <CharString index="91">
        19 15 2 16 23 return
      </CharString>
      <CharString index="92">
        rmoveto
        383 554 rlineto
        87 -550 hlineto
        104 1 rlineto
        return
      </CharString>
      <CharString index="93">
        hlineto
        70 413 -2 callsubr
        -70 -413 rlineto
        return
      </CharString>
      <CharString index="94">
        348 0 50 -49 -21 1043 -20 374 50 return
      </CharString>
      <CharString index="95">
        365 -35 69 1343 return
      </CharString>
      <CharString index="96">
        1462 return
      </CharString>
      <CharString index="97">
        vlineto
        -33 callgsubr
        -80 35 -61 -127 61 return
      </CharString>
      <CharString index="98">
        73 993 431 -57 57 hstemhm
        98 266 return
      </CharString>
      <CharString index="99">
        -101 -495 68 -68 287 1212 -20 return
      </CharString>
      <CharString index="100">
        -22 rlineto
        -41 123 return
      </CharString>
      <CharString index="101">
        21 -21 944 90 return
      </CharString>
      <CharString index="102">
        1034 rmoveto
        return
      </CharString>
      <CharString index="103">
        900 vlineto
        241 10 rlineto
        43 -241 return
      </CharString>
      <CharString index="104">
        -36 callsubr
        90 return
      </CharString>
      <CharString index="105">
        -481 21 -21 return
      </CharString>
      <CharString index="106">
        -475 498 -53 53 931 80 return
      </CharString>
      <CharString index="107">
        -165 147 -21 743 -20 hstem
        return
      </CharString>
      <CharString index="108">
        -471 258 -21 820 -20 hstem
        return
      </CharString>
      <CharString index="109">
        110 vlineto
        endchar
      </CharString>
      <CharString index="110">
        -48 195 -21 940 -20 hstem
        return
      </CharString>
      <CharString index="111">
        149 -102 54 572 -20 hstemhm
        return
      </CharString>
      <CharString index="112">
        55 rmoveto
        -23 -32 2 8 -43 hvcurveto
        return
      </CharString>
      <CharString index="113">
        959 86 -959 hlineto
        endchar
      </CharString>
      <CharString index="114">
        hstem
        180 245 return
      </CharString>
      <CharString index="115">
        21 -21 1004 -20 return
      </CharString>
      <CharString index="116">
        -158 rlineto
        return
      </CharString>
</ttFont>
